<?xml version="1.0" encoding="UTF-8"?>
<svg version="1.1" xmlns="http://www.w3.org/2000/svg" width="1024" height="1024">
<path d="M0 0 C228.9435676 0 228.9435676 0 268.02734375 14.06982422 C271.81767998 15.41007744 274.91210647 16.35406952 279 16 C279 16.66 279 17.32 279 18 C279.60247559 18.27561768 280.20495117 18.55123535 280.82568359 18.83520508 C305.4305643 30.16166895 326.40663836 43.31671254 346 62 C346.90234375 62.83789062 347.8046875 63.67578125 348.734375 64.5390625 C368.71325544 83.65180651 391.94258515 115.7189126 395 144 C390.51313495 142.61942614 386.36934749 140.83368634 382.1484375 138.8046875 C379.75805222 137.76616652 379.75805222 137.76616652 376 138 C375.34 137.34 374.68 136.68 374 136 C358.71019678 129.56709499 341.36541248 125.79485747 324.93359375 124.046875 C324.26039597 123.97211441 323.58719818 123.89735382 322.89360046 123.82032776 C319.61225716 123.46045761 316.34390375 123.14868064 313.05053711 122.90795898 C306.48260519 122.24589586 302.72187409 121.49474826 298.2578125 116.42578125 C297.16915082 114.95252998 296.08258637 113.47772132 295 112 C294.34 111.67 293.68 111.34 293 111 C293 110.01 293 109.02 293 108 C292.34 108 291.68 108 291 108 C291 107.34 291 106.68 291 106 C290.41863281 105.73960937 289.83726562 105.47921875 289.23828125 105.2109375 C286.85649744 103.92236336 285.16420468 102.4688508 283.1875 100.625 C279.0830298 96.94248468 274.92720282 94.46360141 270 92 C269.31679688 91.41089844 268.63359375 90.82179688 267.9296875 90.21484375 C264.21936769 87.40984198 260.32857399 85.52273979 256.125 83.5625 C255.28001953 83.16780518 254.43503906 82.77311035 253.56445312 82.36645508 C243.182311 77.60536141 232.71589375 74.23140357 221.5625 71.8125 C220.84835937 71.65740967 220.13421875 71.50231934 219.3984375 71.3425293 C172.9594259 61.91602639 118.57092026 67 73 67 C72.67 171.94 72.34 276.88 72 385 C111.52272257 385.27323523 111.52272257 385.27323523 151 384 C152.98 384.33 154.96 384.66 157 385 C158.36373852 385.06992003 159.73027514 385.10187758 161.09570312 385.08520508 C162.22096405 385.07413979 162.22096405 385.07413979 163.36895752 385.06285095 C164.16501404 385.04855545 164.96107056 385.03425995 165.78125 385.01953125 C167.04470245 385.00092796 167.04470245 385.00092796 168.3336792 384.98194885 C211.8072666 385.27309534 211.8072666 385.27309534 250 368 C251.65893032 367.3143088 253.32663123 366.64966082 255 366 C270.21712345 358.06994975 287.81262471 344.71921041 297 330 C297 329.34 297 328.68 297 328 C297.99 327.67 298.98 327.34 300 327 C301.77694227 324.65607286 303.40309067 322.33611908 305 319.875 C305.65742187 318.89660156 305.65742187 318.89660156 306.328125 317.8984375 C308.42951721 314.70837222 310.24636104 311.61341418 311.6875 308.0703125 C313 305 313 305 315 304 C315.71974414 302.01848219 316.37528168 300.01349732 317 298 C317.68219471 296.24950037 318.36479477 294.49914386 319.05541992 292.75195312 C330.50911114 263.4104107 331.50641021 234.10137785 331 203 C330.34 202.67 329.68 202.34 329 202 C329.33 201.34 329.66 200.68 330 200 C337.91130499 201.50041991 345.59369417 203.82586893 353 207 C353.33 207.66 353.66 208.32 354 209 C356.75111869 209.85580402 359.5291825 210.47309622 362.3359375 211.12109375 C365.09238996 212.03048056 366.09543165 212.90263792 368 215 C368.66 215 369.32 215 370 215 C371.00159362 215.99840383 372.00110071 216.9989005 373 218 C375.10946625 219.51113479 377.22483505 220.9871072 379.375 222.4375 C382.55194166 224.58810092 385.68119925 226.74150028 388.6640625 229.16015625 C390.86504963 231.02575888 390.86504963 231.02575888 393.125 232.04296875 C395.32174554 233.16422429 396.44646752 234.4085784 398 236.3125 C398.51046875 236.92996094 399.0209375 237.54742187 399.546875 238.18359375 C400.79143916 239.73929895 402.02214462 241.30607369 403.25 242.875 C404.82654503 245.08249688 404.82654503 245.08249688 407 246 C407 246.66 407 247.32 407 248 C405.68 248 404.36 248 403 248 C402.99613281 249.24523437 402.99613281 249.24523437 402.9921875 250.515625 C401.54288899 296.69993754 380.50793967 342.99186667 349.265625 376.54296875 C347.26976453 378.70744502 345.37388997 380.91790996 343.5 383.1875 C342.675 384.115625 341.85 385.04375 341 386 C340.34 386 339.68 386 339 386 C339 386.66 339 387.32 339 388 C336.58463039 390.5822208 333.71404648 392.74148459 331 395 C330.45778809 395.46374023 329.91557617 395.92748047 329.35693359 396.40527344 C315.79238999 408.00442576 301.24076313 417.3664801 285.5 425.75 C284.69264404 426.18078857 283.88528809 426.61157715 283.0534668 427.05541992 C282.30363525 427.4444751 281.55380371 427.83353027 280.78125 428.234375 C280.12189453 428.57694336 279.46253906 428.91951172 278.78320312 429.27246094 C277 430 277 430 274 430 C273.67 430.66 273.34 431.32 273 432 C270.74121094 432.97387695 270.74121094 432.97387695 267.734375 433.98828125 C266.62779541 434.36251221 265.52121582 434.73674316 264.38110352 435.12231445 C263.18283936 435.51507568 261.9845752 435.90783691 260.75 436.3125 C259.52015381 436.71621826 258.29030762 437.11993652 257.02319336 437.53588867 C176.20963441 463.6205144 80.51950564 452 0 452 C0 302.84 0 153.68 0 0 Z " fill="#AC8639" transform="translate(239,232)"/>
<path d="M0 0 C2.31 0 4.62 0 7 0 C7 0.33 7 0.66 7 1 C13.1156929 1.40938171 19.23141686 1.81829544 25.34716797 2.22680664 C27.42041841 2.36535512 29.49366083 2.50402354 31.56689453 2.64282227 C43.70965967 3.45566565 55.85281413 4.25577413 68 5 C68 5.33 68 5.66 68 6 C68.55534424 6.1043335 69.11068848 6.20866699 69.68286133 6.31616211 C111.32844235 14.32150479 150.5670405 30.85662607 181.84375 59.99609375 C183.84701924 61.85782767 185.90573297 63.6173116 188 65.375 C200.4258039 76.25381627 210.26405066 89.74514096 218.77734375 103.7956543 C221.09301419 107.62130002 221.09301419 107.62130002 224 111 C230.7404319 122.94553349 235.64531851 136.03092615 240 149 C240.23702637 149.70302246 240.47405273 150.40604492 240.71826172 151.13037109 C244.69760587 163.16497577 247.10850169 175.47941047 249 188 C249.17950195 189.17191895 249.35900391 190.34383789 249.54394531 191.55126953 C251.04903313 202.29824277 251.39887208 212.90626587 251.375 223.75 C251.37478851 224.6426355 251.37457703 225.535271 251.37435913 226.45495605 C251.33720881 242.25951446 250.10530892 257.46838962 247 273 C246.81276367 273.95197266 246.62552734 274.90394531 246.43261719 275.88476562 C236.96694429 322.54284931 212.20805843 367.75696086 174 397 C172.99453125 397.80953125 171.9890625 398.6190625 170.953125 399.453125 C145.32745928 419.97577591 114.20932423 432.16343494 82.1875 438.4375 C80.99850098 438.67243164 79.80950195 438.90736328 78.58447266 439.14941406 C54.96513207 443.46943978 31.21335402 443.32390964 7.29567623 443.3717854 C2.42798084 443.38384682 -2.43965682 443.40767228 -7.30731201 443.43040466 C-16.49108092 443.47173475 -25.6748552 443.50431036 -34.8586719 443.53287882 C-51.35807869 443.58426287 -67.85744159 443.6459976 -84.35677028 443.71821922 C-90.1416677 443.74312668 -95.92655037 443.76256085 -101.71148157 443.77760136 C-105.29086318 443.787775 -108.87022134 443.8019173 -112.44958496 443.81707764 C-114.11291708 443.82325068 -115.77625659 443.82770012 -117.43959808 443.83033562 C-119.70173952 443.8341265 -121.96377672 443.84392163 -124.22589111 443.85523987 C-126.1270915 443.86102224 -126.1270915 443.86102224 -128.06669998 443.86692142 C-130.93457472 443.7980302 -130.93457472 443.7980302 -133 445 C-133.02333003 430.41428805 -133.04091327 415.82857897 -133.05181217 401.24285221 C-133.05697491 394.47089579 -133.06401718 387.69895095 -133.07543945 380.92700195 C-133.08644714 374.39775574 -133.09227625 367.86851706 -133.09487724 361.33926201 C-133.09673199 358.84206388 -133.10035354 356.34486645 -133.10573006 353.84767342 C-133.11293684 350.36335931 -133.1139911 346.87909569 -133.11352539 343.39477539 C-133.11712067 342.35108795 -133.12071594 341.30740051 -133.12442017 340.23208618 C-133.1230455 339.28832626 -133.12167084 338.34456635 -133.12025452 337.37220764 C-133.12117631 336.54720292 -133.1220981 335.7221982 -133.12304783 334.87219334 C-133 333 -133 333 -132 332 C-129.85256451 331.90574405 -127.70198974 331.88257352 -125.55249023 331.88647461 C-124.54277664 331.88625557 -124.54277664 331.88625557 -123.51266479 331.8860321 C-121.27794216 331.88673122 -119.0433019 331.89452348 -116.80859375 331.90234375 C-115.26302638 331.90420794 -113.71745843 331.90563184 -112.17189026 331.90663147 C-108.09642923 331.9104566 -104.02100363 331.92028683 -99.94555664 331.93133545 C-95.05972272 331.94334434 -90.17387698 331.94795183 -85.28803253 331.95378876 C-77.85866369 331.9634986 -70.42937263 331.98265516 -63 332 C-63 349.82 -63 367.64 -63 386 C-48.1787128 386.02916907 -48.1787128 386.02916907 -33.35742188 386.04882812 C-27.29711004 386.05476591 -21.23681356 386.06172809 -15.17651367 386.07543945 C-10.28111416 386.08644373 -5.38573115 386.09231328 -0.49032021 386.09487724 C1.36121568 386.09670034 3.21275085 386.10025878 5.06427956 386.10573006 C21.56181877 386.15246409 38.12650583 386.03833393 54.4375 383.3125 C55.48969727 383.13734863 56.54189453 382.96219727 57.62597656 382.78173828 C86.09834298 377.78379189 112.74756882 366.04218229 133 345 C133.78375 344.236875 134.5675 343.47375 135.375 342.6875 C168.21619178 309.06437508 178.62254474 265.40865101 178.13671875 219.5703125 C177.9908094 211.03274461 177.58102299 202.51821204 177 194 C176.34 193.67 175.68 193.34 175 193 C175.061875 192.236875 175.12375 191.47375 175.1875 190.6875 C175.30007713 187.9652429 175.30007713 187.9652429 173.5 186.5625 C172 185 172 185 171.8125 181.8125 C171.874375 180.884375 171.93625 179.95625 172 179 C172.66 179.66 173.32 180.32 174 181 C173.24110522 178.2253847 172.46855414 175.45587812 171.6875 172.6875 C171.47416016 171.90181641 171.26082031 171.11613281 171.04101562 170.30664062 C170.82509766 169.54931641 170.60917969 168.79199219 170.38671875 168.01171875 C170.19295654 167.31522217 169.99919434 166.61872559 169.79956055 165.90112305 C168.88922821 163.73661681 167.65750833 162.62736118 166 161 C166.24363281 160.14341797 166.24363281 160.14341797 166.4921875 159.26953125 C167.29382146 155.68684409 165.59642951 152.89813685 164.125 149.6875 C163.80764893 148.98326904 163.49029785 148.27903809 163.16333008 147.5534668 C147.76242866 114.24869206 121.83680812 90.32000993 87.43969727 77.35571289 C83.98900157 76.13448406 80.50836716 75.04257325 77 74 C76.26104492 73.77618652 75.52208984 73.55237305 74.76074219 73.32177734 C37.99948438 62.37144938 -1.36804951 63.90870823 -39.3359375 63.97265625 C-41.64737937 63.97485813 -43.95882144 63.97685299 -46.27026367 63.9786377 C-51.84684708 63.98338288 -57.42342252 63.99064193 -63 64 C-62.99815641 64.9797539 -62.99631283 65.95950781 -62.99441338 66.96895123 C-62.95003625 90.79624572 -62.91715891 114.62353486 -62.89637566 138.45086193 C-62.88605818 149.97352249 -62.87198883 161.49615577 -62.84912109 173.01879883 C-62.82920167 183.06062043 -62.81628699 193.10242228 -62.81182301 203.14426309 C-62.80921318 208.46250975 -62.80306912 213.78069989 -62.78853989 219.09892845 C-62.77497887 224.10323535 -62.77077438 229.10746236 -62.77378464 234.11178589 C-62.77323381 235.94961798 -62.76924758 237.78745271 -62.76158905 239.62526894 C-62.75165099 242.13282071 -62.75402696 244.64007014 -62.75949097 247.14762878 C-62.75366528 247.8762357 -62.7478396 248.60484262 -62.74183738 249.35552853 C-62.76536429 253.34522117 -63.23829694 256.40631947 -65 260 C-65.99 260 -66.98 260 -68 260 C-68 259.34 -68 258.68 -68 258 C-70.64680904 258.11339204 -73.29177518 258.24012873 -75.9375 258.375 C-77.06961914 258.42140625 -77.06961914 258.42140625 -78.22460938 258.46875 C-80.15507395 258.5726315 -82.07942081 258.77895614 -84 259 C-84.33 259.66 -84.66 260.32 -85 261 C-92.59 261 -100.18 261 -108 261 C-108 260.01 -108 259.02 -108 258 C-108.66 258.99 -109.32 259.98 -110 261 C-113.15234375 261.36328125 -113.15234375 261.36328125 -116.9375 261.3125 C-118.18402344 261.30863281 -119.43054688 261.30476563 -120.71484375 261.30078125 C-124 261 -124 261 -127 259 C-128.98 259 -130.96 259 -133 259 C-133 174.52 -133 90.04 -133 3 C-129.96054098 1.98684699 -127.88540083 1.86325729 -124.70393372 1.84178162 C-123.6059697 1.8319928 -122.50800568 1.82220398 -121.37677002 1.81211853 C-120.17195984 1.80636307 -118.96714966 1.8006076 -117.72583008 1.79467773 C-116.45742783 1.78477814 -115.18902557 1.77487854 -113.88218689 1.76467896 C-110.40315682 1.7376366 -106.92411319 1.71662343 -103.44503617 1.69667697 C-99.80949828 1.67481329 -96.17400214 1.64742647 -92.53849792 1.62062073 C-85.65375663 1.57069901 -78.76899216 1.52575825 -71.88420552 1.48259836 C-64.04628899 1.43322154 -56.20841436 1.37830506 -48.37053835 1.32291877 C-32.24706419 1.20910672 -16.12355162 1.10226598 0 1 C0 0.67 0 0.34 0 0 Z M-122 258 C-122 258.33 -122 258.66 -122 259 C-120.02 259 -118.04 259 -116 259 C-116 258.67 -116 258.34 -116 258 C-117.98 258 -119.96 258 -122 258 Z M-107 258 C-107 258.33 -107 258.66 -107 259 C-103.7 259 -100.4 259 -97 259 C-97 258.67 -97 258.34 -97 258 C-100.3 258 -103.6 258 -107 258 Z M-96 258 C-92 259 -92 259 -92 259 Z " fill="#294E3A" transform="translate(500,355)"/>
<path d="M0 0 C0.93305969 -0.00563965 1.86611938 -0.0112793 2.82745361 -0.01708984 C3.85482635 -0.01304138 4.8821991 -0.00899292 5.94070435 -0.00482178 C7.56081421 -0.01007874 7.56081421 -0.01007874 9.21365356 -0.01544189 C12.80779338 -0.02428732 16.40173806 -0.01839276 19.99588013 -0.01165771 C22.50101764 -0.01300532 25.00615489 -0.01494665 27.5112915 -0.01745605 C32.78237902 -0.02041255 38.05341589 -0.01629056 43.32449341 -0.0067749 C50.02836596 0.00518981 56.73204942 -0.00186897 63.43592644 -0.01391983 C68.62322159 -0.02121496 73.81047964 -0.01881395 78.99777603 -0.01366425 C81.46531316 -0.01234326 83.93285381 -0.01392013 86.40038681 -0.01862335 C100.92102602 -0.04019005 115.15025535 0.45554825 129.56619263 2.25396729 C129.56619263 2.58396729 129.56619263 2.91396729 129.56619263 3.25396729 C86.00619263 3.25396729 42.44619263 3.25396729 -2.43380737 3.25396729 C-2.76380737 108.19396729 -3.09380737 213.13396729 -3.43380737 321.25396729 C36.0889152 321.52720251 36.0889152 321.52720251 75.56619263 320.25396729 C77.54619263 320.58396729 79.52619263 320.91396729 81.56619263 321.25396729 C83.26052338 321.33406458 84.95737796 321.37198002 86.65359497 321.36749268 C88.09440933 321.36737938 88.09440933 321.36737938 89.56433105 321.36726379 C90.58330475 321.36210251 91.60227844 321.35694122 92.65213013 321.35162354 C93.7090506 321.35020859 94.76597107 321.34879364 95.85491943 321.34733582 C99.21703978 321.34175668 102.57909254 321.32920798 105.94119263 321.31646729 C108.22634791 321.31144959 110.51150425 321.30688715 112.79666138 321.30279541 C118.38652803 321.29179408 123.9763555 321.27507673 129.56619263 321.25396729 C121.88120874 325.55018521 111.87127916 324.39554556 103.32351685 324.36749268 C102.14187454 324.3676387 100.96023224 324.36778473 99.74278259 324.36793518 C95.8687959 324.36724306 91.99485834 324.35948364 88.12088013 324.35162354 C85.42232287 324.34919818 82.72376565 324.34828489 80.02520752 324.34733582 C73.66836607 324.34424027 67.31154203 324.33605107 60.95470822 324.32598633 C53.7115694 324.31476971 46.4684297 324.30930081 39.22528434 324.30429089 C24.33891077 324.29386679 9.45255345 324.2763021 -5.43380737 324.25396729 C-6.71486274 321.69185654 -6.5603581 319.88591636 -6.56244183 317.01589966 C-6.56566627 315.89846437 -6.56889072 314.78102909 -6.57221287 313.62973213 C-6.57066427 312.3918186 -6.56911567 311.15390507 -6.56752014 309.878479 C-6.5697857 308.57144453 -6.57205125 307.26441006 -6.57438546 305.91776848 C-6.58052622 302.2776385 -6.58036721 298.63753141 -6.57919109 294.99739742 C-6.57898766 291.076427 -6.58450028 287.15546405 -6.58924866 283.23449707 C-6.59756792 275.54849459 -6.60030406 267.86249977 -6.60086104 260.17649317 C-6.60133554 253.93227688 -6.60338697 247.68806314 -6.60656166 241.44384766 C-6.61537125 223.75778491 -6.61998049 206.07172823 -6.61923119 188.38566327 C-6.61919123 187.43148094 -6.61915127 186.47729861 -6.61911011 185.49420166 C-6.61906923 184.53886056 -6.61902835 183.58351945 -6.61898623 182.59922862 C-6.61857954 167.10689908 -6.62815408 151.61459382 -6.64224847 136.1222713 C-6.65659142 120.23196221 -6.66351983 104.34166499 -6.6626547 88.45134926 C-6.66232203 79.52321981 -6.66509939 70.59511582 -6.67583275 61.66699219 C-6.68491036 54.06718696 -6.68713564 46.46741874 -6.68032333 38.86761045 C-6.67704435 34.98691225 -6.67705068 31.10628514 -6.68567657 27.22559357 C-6.69491389 23.02682631 -6.6888017 18.82822573 -6.68104553 14.62945557 C-6.6861891 13.39154203 -6.69133266 12.1536285 -6.69663209 10.87820244 C-6.68973389 9.20204951 -6.68973389 9.20204951 -6.68269634 7.49203491 C-6.68291371 6.52179445 -6.68313108 5.55155399 -6.68335503 4.55191231 C-6.20525825 0.14938606 -3.85223131 0.00357355 0 0 Z " fill="#A67D30" transform="translate(314.4338073730469,295.74603271484375)"/>
<path d="M0 0 C1.00198897 0.00829614 2.00397795 0.01659227 3.03633022 0.02513981 C4.75487965 0.03569904 4.75487965 0.03569904 6.50814724 0.0464716 C7.7762524 0.05941761 9.04435757 0.07236362 10.35089016 0.08570194 C11.6909189 0.09583904 13.03095105 0.10553332 14.37098598 0.11481571 C18.01961752 0.14135379 21.66817018 0.17412145 25.31674027 0.20796561 C29.12573855 0.24225234 32.93477921 0.27086822 36.74381924 0.30007267 C43.96159707 0.35628077 51.17932183 0.41762605 58.39704174 0.48079401 C66.6121132 0.55244216 74.82722724 0.61839837 83.04234993 0.68386447 C99.94595214 0.818697 116.8494866 0.96071654 133.75298977 1.10743046 C133.75298977 1.43743046 133.75298977 1.76743046 133.75298977 2.10743046 C89.53298977 2.10743046 45.31298977 2.10743046 -0.24701023 2.10743046 C-0.24701023 85.26743046 -0.24701023 168.42743046 -0.24701023 254.10743046 C20.87298977 254.10743046 41.99298977 254.10743046 63.75298977 254.10743046 C64.08298977 190.74743046 64.41298977 127.38743046 64.75298977 62.10743046 C65.41298977 62.43743046 66.07298977 62.76743046 66.75298977 63.10743046 C66.79968768 87.79399108 66.83496778 112.48054509 66.85661411 137.16714096 C66.86693152 148.62926744 66.88100076 160.0913665 66.90386868 171.55347538 C66.9237883 181.54255927 66.93670282 191.5316233 66.94116676 201.5207265 C66.94377655 206.81102762 66.94992041 212.10127191 66.96444988 217.39155483 C66.97801121 222.36959702 66.98221533 227.34755889 66.97920513 232.32561779 C66.97975594 234.15377457 66.983742 235.98193399 66.99140072 237.81007481 C67.00133926 240.3044899 66.99896263 242.7986011 66.9934988 245.29302311 C66.99932449 246.01773908 67.00515017 246.74245505 67.01115239 247.48913211 C66.98755643 251.46989177 66.50883281 254.52147398 64.75298977 258.10743046 C63.76298977 258.10743046 62.77298977 258.10743046 61.75298977 258.10743046 C61.75298977 257.44743046 61.75298977 256.78743046 61.75298977 256.10743046 C59.10618073 256.2208225 56.46121459 256.34755918 53.81548977 256.48243046 C52.68337063 256.52883671 52.68337063 256.52883671 51.52838039 256.57618046 C49.59791582 256.68006196 47.67356896 256.8863866 45.75298977 257.10743046 C45.42298977 257.76743046 45.09298977 258.42743046 44.75298977 259.10743046 C37.16298977 259.10743046 29.57298977 259.10743046 21.75298977 259.10743046 C21.75298977 258.11743046 21.75298977 257.12743046 21.75298977 256.10743046 C21.09298977 257.09743046 20.43298977 258.08743046 19.75298977 259.10743046 C16.60064602 259.47071171 16.60064602 259.47071171 12.81548977 259.41993046 C11.56896633 259.41606327 10.32244289 259.41219608 9.03814602 259.40821171 C5.75298977 259.10743046 5.75298977 259.10743046 2.75298977 257.10743046 C-0.37222857 256.94043813 -0.37222857 256.94043813 -3.24701023 257.10743046 C-3.26979988 224.51156646 -3.28750803 191.91570474 -3.29807556 159.31983459 C-3.29932634 155.47567708 -3.30062065 151.63151959 -3.30194187 147.7873621 C-3.30220418 147.02202703 -3.30246649 146.25669196 -3.30273675 145.46816491 C-3.30709361 133.05957376 -3.31498124 120.65098722 -3.32416303 108.24239881 C-3.33349914 95.51958465 -3.33906575 82.79677292 -3.34109873 70.07395548 C-3.34247404 62.21693599 -3.3468251 54.35992954 -3.3549267 46.50291406 C-3.36081431 40.4883759 -3.3614693 34.47384905 -3.36011791 28.45930767 C-3.36039444 25.98445143 -3.36240221 23.50959472 -3.36621571 21.0347414 C-3.37114596 17.67195396 -3.370011 14.30922357 -3.36726475 10.94643497 C-3.37017759 9.95326505 -3.37309043 8.96009513 -3.37609154 7.93682915 C-3.37310497 6.59621868 -3.37310497 6.59621868 -3.37005806 5.22852516 C-3.37062764 4.06259389 -3.37062764 4.06259389 -3.37120873 2.87310845 C-3.18068239 0.16447533 -2.70474233 0.12931481 0 0 Z M7.75298977 256.10743046 C7.75298977 256.43743046 7.75298977 256.76743046 7.75298977 257.10743046 C9.73298977 257.10743046 11.71298977 257.10743046 13.75298977 257.10743046 C13.75298977 256.77743046 13.75298977 256.44743046 13.75298977 256.10743046 C11.77298977 256.10743046 9.79298977 256.10743046 7.75298977 256.10743046 Z M22.75298977 256.10743046 C22.75298977 256.43743046 22.75298977 256.76743046 22.75298977 257.10743046 C26.05298977 257.10743046 29.35298977 257.10743046 32.75298977 257.10743046 C32.75298977 256.77743046 32.75298977 256.44743046 32.75298977 256.10743046 C29.45298977 256.10743046 26.15298977 256.10743046 22.75298977 256.10743046 Z M33.75298977 256.10743046 C37.75298977 257.10743046 37.75298977 257.10743046 37.75298977 257.10743046 Z " fill="#1E2C1F" transform="translate(370.24701023101807,356.89256954193115)"/>
<path d="M0 0 C22.77 0 45.54 0 69 0 C69 17.82 69 35.64 69 54 C106.62 54 144.24 54 183 54 C183 54.33 183 54.66 183 55 C170.06908647 57.27719377 157.31751552 57.25936114 144.22265625 57.1953125 C141.95723089 57.19157442 139.6918039 57.18873121 137.42637634 57.18673706 C131.5131063 57.17916314 125.59993718 57.15956946 119.68670654 57.1373291 C112.56538223 57.11310324 105.44402385 57.10405993 98.32266998 57.09242249 C87.54837683 57.07314053 76.77430438 57.03477452 66 57 C66 39.18 66 21.36 66 3 C44.88 3 23.76 3 2 3 C2 37.98 2 72.96 2 109 C58.43 109 114.86 109 173 109 C173 109.33 173 109.66 173 110 C115.91 110 58.82 110 0 110 C0 73.7 0 37.4 0 0 Z " fill="#18281C" transform="translate(368,687)"/>
<path d="M0 0 C0.33 0 0.66 0 1 0 C1 147.84 1 295.68 1 448 C60.73 448 120.46 448 182 448 C182 448.33 182 448.66 182 449 C172.14831678 449.77929941 162.31652417 450.28866627 152.4375 450.5625 C151.31183121 450.59376984 151.31183121 450.59376984 150.16342163 450.62567139 C100.12929762 451.96868682 50.01641702 450.56836838 0 450 C0 301.5 0 153 0 0 Z " fill="#8F5A05" transform="translate(240,233)"/>
<path d="M0 0 C1.15920638 2.31841276 1.11891231 3.61770124 1.10743046 6.19729042 C1.10593811 7.0825716 1.10444576 7.96785278 1.10290819 8.87996066 C1.0961044 9.85854489 1.08930061 10.83712913 1.08229065 11.84536743 C1.07906152 12.88021503 1.07583239 13.91506263 1.07250541 14.98126924 C1.06037903 18.47143604 1.04101691 21.96152611 1.02172852 25.45166016 C1.01159116 27.94453258 1.0018969 30.43740684 0.99261475 32.93028259 C0.97158546 38.30888281 0.94745542 43.68745561 0.92053413 49.06602859 C0.88161549 56.84260063 0.84824394 64.61918862 0.81623887 72.39579181 C0.76416521 85.01192704 0.7075873 97.6280379 0.64819336 110.24414062 C0.59049736 122.50161795 0.5349124 134.75910184 0.48217773 147.01660156 C0.47892802 147.771786 0.4756783 148.52697043 0.4723301 149.30503924 C0.45604075 153.09346785 0.43979302 156.88189664 0.42356598 160.67032552 C0.28883074 192.11358166 0.14596575 223.55679349 0 255 C22.44 255 44.88 255 68 255 C67.67 255.99 67.34 256.98 67 258 C66.01 258 65.02 258 64 258 C64 257.34 64 256.68 64 256 C61.35319096 256.11339204 58.70822482 256.24012873 56.0625 256.375 C54.93038086 256.42140625 54.93038086 256.42140625 53.77539062 256.46875 C51.84492605 256.5726315 49.92057919 256.77895614 48 257 C47.67 257.66 47.34 258.32 47 259 C39.41 259 31.82 259 24 259 C24 258.01 24 257.02 24 256 C23.34 256.99 22.68 257.98 22 259 C18.84765625 259.36328125 18.84765625 259.36328125 15.0625 259.3125 C13.81597656 259.30863281 12.56945312 259.30476563 11.28515625 259.30078125 C8 259 8 259 5 257 C1.87478167 256.83300768 1.87478167 256.83300768 -1 257 C-1.02278965 224.404136 -1.0404978 191.80827428 -1.05106533 159.21240414 C-1.05231611 155.36824662 -1.05361042 151.52408913 -1.05493164 147.67993164 C-1.05519395 146.91459657 -1.05545626 146.1492615 -1.05572652 145.36073446 C-1.06008338 132.9521433 -1.06797101 120.54355676 -1.0771528 108.13496835 C-1.08648891 95.41215419 -1.09205552 82.68934246 -1.09408849 69.96652502 C-1.09546381 62.10950553 -1.09981487 54.25249908 -1.10791647 46.39548361 C-1.11380407 40.38094544 -1.11445907 34.3664186 -1.11310768 28.35187721 C-1.11338421 25.87702097 -1.11539198 23.40216426 -1.11920547 20.92731094 C-1.12413572 17.5645235 -1.12300077 14.20179311 -1.12025452 10.83900452 C-1.12316736 9.84583459 -1.1260802 8.85266467 -1.12908131 7.82939869 C-1.12609474 6.48878822 -1.12609474 6.48878822 -1.12304783 5.1210947 C-1.12361741 3.95516343 -1.12361741 3.95516343 -1.1241985 2.76567799 C-1 1 -1 1 0 0 Z M10 256 C10 256.33 10 256.66 10 257 C11.98 257 13.96 257 16 257 C16 256.67 16 256.34 16 256 C14.02 256 12.04 256 10 256 Z M25 256 C25 256.33 25 256.66 25 257 C28.3 257 31.6 257 35 257 C35 256.67 35 256.34 35 256 C31.7 256 28.4 256 25 256 Z M36 256 C40 257 40 257 40 257 Z " fill="#5B6B49" transform="translate(368,357)"/>
<path d="M0 0 C2.31 0 4.62 0 7 0 C7 0.33 7 0.66 7 1 C7.5593222 1.03314301 8.11864441 1.06628601 8.69491577 1.10043335 C14.50273661 1.4464064 20.30965285 1.80533051 26.11621094 2.171875 C28.28495036 2.30705564 30.45390014 2.43890359 32.62304688 2.56738281 C35.73628751 2.75235598 38.84858129 2.94920063 41.9609375 3.1484375 C42.934935 3.20373627 43.9089325 3.25903503 44.91244507 3.31600952 C45.81322784 3.37592072 46.71401062 3.43583191 47.64208984 3.49755859 C48.83455826 3.57083878 48.83455826 3.57083878 50.05111694 3.64559937 C52 4 52 4 54 6 C-6.72 5.67 -67.44 5.34 -130 5 C-130 4.01 -130 3.02 -130 2 C-87.1 1.67 -44.2 1.34 0 1 C0 0.67 0 0.34 0 0 Z " fill="#43583D" transform="translate(500,355)"/>
<path d="M0 0 C59.73 0 119.46 0 181 0 C181 0.33 181 0.66 181 1 C171.14831426 1.77929961 161.316525 2.28863107 151.4375 2.5625 C150.68738647 2.58334656 149.93727295 2.60419312 149.16442871 2.62567139 C99.47151875 3.96020155 49.69675108 2.62888402 0 2 C0 1.34 0 0.68 0 0 Z " fill="#9A6715" transform="translate(241,681)"/>
<path d="M0 0 C0.93168503 -0.00426498 1.86337006 -0.00852997 2.82328796 -0.01292419 C3.85425598 -0.01247101 4.885224 -0.01201782 5.94743347 -0.0115509 C7.5673243 -0.01658882 7.5673243 -0.01658882 9.21994019 -0.02172852 C12.81946442 -0.03128638 16.41894223 -0.03318521 20.01847839 -0.03425598 C22.52504495 -0.03746944 25.03161133 -0.04083358 27.53817749 -0.04434204 C32.81522633 -0.05034829 38.09225789 -0.05222359 43.36930847 -0.05158997 C48.75508106 -0.05105992 54.14078111 -0.05799507 59.52653503 -0.07209778 C66.04406856 -0.08891561 72.56153738 -0.09564035 79.07909203 -0.09498024 C81.54942376 -0.09614943 84.01975638 -0.10051053 86.49007607 -0.10831261 C101.02374384 -0.14985126 115.25790716 0.32787522 129.68644714 2.13371277 C129.68644714 2.46371277 129.68644714 2.79371277 129.68644714 3.13371277 C112.51032818 3.15704956 95.33421414 3.17469579 78.15808296 3.18552494 C70.18332007 3.19068623 62.20856701 3.19772577 54.23381042 3.20915222 C47.28486496 3.21910413 40.33592661 3.22556741 33.38697422 3.22780126 C29.70589687 3.2291075 26.0248399 3.23218792 22.34376907 3.23944283 C18.23939857 3.24746675 14.13506374 3.24770358 10.03068542 3.24723816 C8.19002502 3.25263107 8.19002502 3.25263107 6.31217957 3.25813293 C5.1987619 3.25675827 4.08534424 3.25538361 2.93818665 3.25396729 C1.96661684 3.25488908 0.99504704 3.25581087 -0.00596428 3.2567606 C-2.31355286 3.13371277 -2.31355286 3.13371277 -4.31355286 2.13371277 C-4.31355286 4.44371277 -4.31355286 6.75371277 -4.31355286 9.13371277 C-4.64355286 9.13371277 -4.97355286 9.13371277 -5.31355286 9.13371277 C-5.41120911 2.98136902 -5.41120911 2.98136902 -5.31355286 1.13371277 C-3.74125153 -0.43858856 -2.18446177 0.00449855 0 0 Z " fill="#996715" transform="translate(314.3135528564453,295.8662872314453)"/>
<path d="M0 0 C4.44796807 0.4266636 6.96985467 3.47571341 9.9375 6.5 C10.50452637 7.07532471 11.07155273 7.65064941 11.65576172 8.2434082 C30.13957428 27.44362784 52.05211968 57.73210703 55 85 C50.51313495 83.61942614 46.36934749 81.83368634 42.1484375 79.8046875 C39.75805222 78.76616652 39.75805222 78.76616652 36 79 C34 77 32 75 30 73 C37.1178153 75.03807293 44.06707281 77.40344742 51 80 C40.14405465 49.80144784 24.61966517 24.95901284 1.43359375 2.49609375 C0 1 0 1 0 0 Z " fill="#A27729" transform="translate(579,291)"/>
<path d="M0 0 C5.03984368 0.75576101 10.08217209 0.63282149 15.16723633 0.60693359 C16.22274185 0.60551865 17.27824738 0.6041037 18.36573792 0.60264587 C21.71756901 0.59707457 25.06933187 0.58452736 28.42114258 0.57177734 C30.70174057 0.56675864 32.98233961 0.56219638 35.26293945 0.55810547 C40.83653021 0.54711454 46.41008152 0.53040511 51.98364258 0.50927734 C42.79062017 5.58143684 30.1699679 3.63948177 19.94458008 3.60693359 C18.2100936 3.60506525 16.47560658 3.60364332 14.74111938 3.60264587 C10.20711779 3.59885346 5.67314894 3.58905167 1.13916016 3.57794189 C-3.49991412 3.56765683 -8.13899375 3.56313314 -12.77807617 3.55810547 C-21.85751753 3.54742602 -30.93693474 3.53038961 -40.01635742 3.50927734 C-40.01635742 3.17927734 -40.01635742 2.84927734 -40.01635742 2.50927734 C-30.06783785 1.51239389 -20.11636319 0.51582724 -10.14135742 -0.17822266 C-8.92706055 -0.26458984 -7.71276367 -0.35095703 -6.46166992 -0.43994141 C-3.01635742 -0.49072266 -3.01635742 -0.49072266 0 0 Z " fill="#986F24" transform="translate(392.016357421875,616.49072265625)"/>
<path d="M0 0 C12.53592396 1.84524114 24.60924438 19.75829676 32 29 C32.65871094 29.77988281 33.31742188 30.55976563 33.99609375 31.36328125 C38.8087836 37.1249522 42.78858117 43.23753127 46.67553711 49.64331055 C49.03826205 53.54834959 49.03826205 53.54834959 52 57 C52.72805041 58.34668999 53.40859566 59.71941904 54.05859375 61.10546875 C54.44466797 61.92466797 54.83074219 62.74386719 55.22851562 63.58789062 C55.62748047 64.44576172 56.02644531 65.30363281 56.4375 66.1875 C56.83259766 67.02603516 57.22769531 67.86457031 57.63476562 68.72851562 C58.76928617 71.1466867 59.88871752 73.57107232 61 76 C61.31251709 76.67764404 61.62503418 77.35528809 61.94702148 78.0534668 C63.67414754 81.90926934 64.31037861 84.75815895 64 89 C61.62077215 86.62077215 60.8759956 84.55702088 59.625 81.4375 C59.17898438 80.34824219 58.73296875 79.25898438 58.2734375 78.13671875 C57.54745183 76.34847797 56.82266505 74.55974671 56.1015625 72.76953125 C45.3876667 47.36088845 26.89083217 23.94293144 6.19140625 5.9375 C4.03935325 4.0347936 2.01000788 2.05121533 0 0 Z " fill="#213626" transform="translate(672,409)"/>
<path d="M0 0 C22.77 0 45.54 0 69 0 C68.67 0.99 68.34 1.98 68 3 C46.22 3 24.44 3 2 3 C2 2.34 2 1.68 2 1 C1.34 0.67 0.68 0.34 0 0 Z " fill="#414125" transform="translate(368,687)"/>
<path d="M0 0 C10.4328794 4.72702545 21.21486008 14.80722979 28 24 C28 24.66 28 25.32 28 26 C29.27508423 26.15033691 29.27508423 26.15033691 30.57592773 26.30371094 C61.78619452 30.02942729 61.78619452 30.02942729 76 34 C76 34.33 76 34.66 76 35 C69.58028945 35.3930435 63.9476722 34.21406523 57.6875 32.83203125 C54.04846885 32.11086204 50.44733521 31.74418344 46.75 31.44921875 C45.64841553 31.35229736 44.54683105 31.25537598 43.41186523 31.15551758 C41.22122145 30.97204577 39.02757968 30.82079399 36.83227539 30.70581055 C30.6729061 30.1588806 27.52569171 29.17176434 23.37109375 24.4453125 C22.76064209 23.63852051 22.15019043 22.83172852 21.52124023 22.00048828 C20.14906137 19.89067211 20.14906137 19.89067211 18 19 C18 18.01 18 17.02 18 16 C17.34 16 16.68 16 16 16 C16 15.34 16 14.68 16 14 C15.4225 13.73960937 14.845 13.47921875 14.25 13.2109375 C8.88229441 10.32206817 4.11400653 5.4568404 0 1 C0 0.67 0 0.34 0 0 Z " fill="#A0782A" transform="translate(514,324)"/>
<path d="M0 0 C2.8125 -0.1875 2.8125 -0.1875 6 0 C7.02584227 0.97347195 8.01934582 1.9810214 9 3 C11.10946625 4.51113479 13.22483505 5.9871072 15.375 7.4375 C18.55194166 9.58810092 21.68119925 11.74150028 24.6640625 14.16015625 C26.86504963 16.02575888 26.86504963 16.02575888 29.125 17.04296875 C31.32174554 18.16422429 32.44646752 19.4085784 34 21.3125 C34.51046875 21.92996094 35.0209375 22.54742187 35.546875 23.18359375 C36.79143916 24.73929895 38.02214462 26.30607369 39.25 27.875 C40.82654503 30.08249688 40.82654503 30.08249688 43 31 C43 31.66 43 32.32 43 33 C41.68 33 40.36 33 39 33 C38.90912109 34.62808594 38.90912109 34.62808594 38.81640625 36.2890625 C38.73193936 37.73438486 38.64729449 39.17969682 38.5625 40.625 C38.52318359 41.33785156 38.48386719 42.05070312 38.44335938 42.78515625 C38.19690319 46.91803682 37.76529947 50.92269024 37 55 C36.34 55 35.68 55 35 55 C34.67 56.32 34.34 57.64 34 59 C34.11834651 56.9787661 34.24522053 54.95803202 34.375 52.9375 C34.45492187 51.66519531 34.53484375 50.39289063 34.6171875 49.08203125 C34.83184567 46.34085964 35.21216173 43.70611836 35.7578125 41.01171875 C37.2729734 34.18891808 37.2729734 34.18891808 35.921875 27.55859375 C34.10808472 25.39306377 32.22500344 23.73877017 30 22 C29.28328125 21.37222656 28.5665625 20.74445313 27.828125 20.09765625 C19.90594334 13.38506944 11.00490102 7.5234055 2.05078125 2.26953125 C1.37402344 1.85058594 0.69726562 1.43164062 0 1 C0 0.67 0 0.34 0 0 Z " fill="#9B782E" transform="translate(603,447)"/>
<path d="M0 0 C9.97995413 -0.02326035 19.95990171 -0.04098449 29.93987751 -0.05181217 C34.57491838 -0.0570112 39.20994058 -0.0640542 43.8449707 -0.07543945 C48.32536691 -0.0863749 52.80574526 -0.09229924 57.28615379 -0.09487724 C58.98800118 -0.0967124 60.68984769 -0.10029567 62.39168739 -0.10573006 C71.31611693 -0.13307176 80.12397279 -0.0805858 89 1 C89 1.33 89 1.66 89 2 C69.0596406 2.69473454 49.12340839 3.12038289 29.17041016 3.17724609 C27.01658799 3.18407743 24.86277393 3.19432675 22.70898438 3.20800781 C19.66919185 3.22584477 16.62968244 3.23016604 13.58984375 3.23046875 C12.22187904 3.2411866 12.22187904 3.2411866 10.82627869 3.25212097 C9.98376053 3.24908463 9.14124237 3.24604828 8.27319336 3.24291992 C7.54096054 3.24434494 6.80872772 3.24576996 6.05430603 3.24723816 C3.68908943 2.96258155 2.05888096 2.17005728 0 1 C0 0.67 0 0.34 0 0 Z " fill="#172D1F" transform="translate(435,416)"/>
<path d="M0 0 C0.33 0 0.66 0 1 0 C1 8.91 1 17.82 1 27 C23.44 27 45.88 27 69 27 C68.505 28.485 68.505 28.485 68 30 C67.01 30 66.02 30 65 30 C65 29.34 65 28.68 65 28 C62.35319096 28.11339204 59.70822482 28.24012873 57.0625 28.375 C55.93038086 28.42140625 55.93038086 28.42140625 54.77539062 28.46875 C52.84492605 28.5726315 50.92057919 28.77895614 49 29 C48.67 29.66 48.34 30.32 48 31 C40.41 31 32.82 31 25 31 C25 30.01 25 29.02 25 28 C24.34 28.99 23.68 29.98 23 31 C19.84765625 31.36328125 19.84765625 31.36328125 16.0625 31.3125 C14.81597656 31.30863281 13.56945312 31.30476562 12.28515625 31.30078125 C9 31 9 31 6 29 C4.02 29 2.04 29 0 29 C0 19.43 0 9.86 0 0 Z M11 28 C11 28.33 11 28.66 11 29 C12.98 29 14.96 29 17 29 C17 28.67 17 28.34 17 28 C15.02 28 13.04 28 11 28 Z M26 28 C26 28.33 26 28.66 26 29 C29.3 29 32.6 29 36 29 C36 28.67 36 28.34 36 28 C32.7 28 29.4 28 26 28 Z M37 28 C41 29 41 29 41 29 Z " fill="#747549" transform="translate(367,585)"/>
<path d="M0 0 C0.99 0.33 1.98 0.66 3 1 C-2.10335172 9.85998562 -7.24986052 18.26939333 -14 26 C-14.80566406 26.92683594 -15.61132812 27.85367188 -16.44140625 28.80859375 C-23.62458093 36.8910361 -31.26491687 43.65777209 -40 50 C-40.66 49.67 -41.32 49.34 -42 49 C-36.51298455 43.33008403 -30.69710857 37.8578876 -24.453125 33.03125 C-14.40533293 24.71142218 -6.1160382 11.43433228 0 0 Z " fill="#2A3D2B" transform="translate(659,666)"/>
<path d="M0 0 C0.66 0 1.32 0 2 0 C2.02486852 5.67423184 2.04293935 11.34843138 2.05493164 17.02270508 C2.05993539 18.94979404 2.06674045 20.87687925 2.07543945 22.80395508 C2.08767948 25.58676076 2.09326804 28.36951589 2.09765625 31.15234375 C2.10281754 32.00271713 2.10797882 32.85309052 2.11329651 33.72923279 C2.11400491 41.42154807 1.78719049 48.75330473 -1 56 C-1.33 56 -1.66 56 -2 56 C-1.93941406 54.89011719 -1.87882813 53.78023437 -1.81640625 52.63671875 C-0.90295564 35.10104008 -0.46279776 17.55208876 0 0 Z " fill="#23392A" transform="translate(749,559)"/>
<path d="M0 0 C-15.33847103 9.7834572 -39.0829586 13.29209433 -57 12 C-57 11.67 -57 11.34 -57 11 C-56.22213135 10.88519287 -55.4442627 10.77038574 -54.64282227 10.65209961 C-39.30272659 8.34742615 -24.41986754 5.68187819 -9.54516602 1.14819336 C-8.57635498 0.85436768 -7.60754395 0.56054199 -6.609375 0.2578125 C-5.76342773 -0.0088623 -4.91748047 -0.27553711 -4.04589844 -0.55029297 C-2 -1 -2 -1 0 0 Z " fill="#203627" transform="translate(616,783)"/>
<path d="M0 0 C36.46426652 -0.41277905 36.46426652 -0.41277905 54 2 C54 2.33 54 2.66 54 3 C47.60962769 3.02527062 41.21926817 3.04283317 34.82885742 3.05493164 C32.65307127 3.05997308 30.47728853 3.06680607 28.30151367 3.07543945 C25.18146933 3.08751338 22.06146962 3.09323005 18.94140625 3.09765625 C17.96224747 3.10281754 16.98308868 3.10797882 15.97425842 3.11329651 C14.62297096 3.11340981 14.62297096 3.11340981 13.24438477 3.11352539 C12.04858543 3.11685631 12.04858543 3.11685631 10.82862854 3.12025452 C9 3 9 3 8 2 C6.65252916 1.76924918 5.29622435 1.58846937 3.9375 1.4375 C2.638125 1.293125 1.33875 1.14875 0 1 C0 0.67 0 0.34 0 0 Z " fill="#A27628" transform="translate(390,296)"/>
<path d="M0 0 C0.33 0 0.66 0 1 0 C2.63327809 10.12169728 3.29338167 19.92116447 3.20581055 30.16357422 C3.18734003 32.39432061 3.18530339 34.62465306 3.18554688 36.85546875 C3.16751729 43.96267205 2.9946846 50.94967553 2 58 C1.67 58 1.34 58 1 58 C-0.19388403 16.76019735 -0.19388403 16.76019735 0 0 Z " fill="#1E291D" transform="translate(678,548)"/>
<path d="M0 0 C11.43864156 -0.24337535 22.5133635 0.25778229 33.85986328 1.72998047 C37.56829586 2.19787078 41.28429727 2.59445132 45 3 C45 3.66 45 4.32 45 5 C40.34066094 4.90553837 35.68178598 4.79925542 31.02294922 4.68261719 C29.44229257 4.64463765 27.86155858 4.60973435 26.28076172 4.578125 C6.96348736 4.18713652 6.96348736 4.18713652 1 2 C0.67 1.34 0.34 0.68 0 0 Z " fill="#A77A2C" transform="translate(416,232)"/>
<path d="M0 0 C7.80898519 0.3015665 12.8597292 2.63310504 19.5 6.625 C20.38558594 7.13417969 21.27117188 7.64335937 22.18359375 8.16796875 C37.6003456 17.2006912 37.6003456 17.2006912 40 22 C35.81943749 21.41737882 32.89836807 18.95019431 29.5625 16.5625 C20.32787522 10.14567702 10.22842226 5.59621344 0 1 C0 0.67 0 0.34 0 0 Z " fill="#333F28" transform="translate(589,432)"/>
<path d="M0 0 C-0.66 0 -1.32 0 -2 0 C-2 0.66 -2 1.32 -2 2 C-6.04083348 2.98262665 -10.0828058 3.96048735 -14.125 4.9375 C-15.83816406 5.35418945 -15.83816406 5.35418945 -17.5859375 5.77929688 C-19.24882812 6.18051758 -19.24882812 6.18051758 -20.9453125 6.58984375 C-21.96125488 6.83597412 -22.97719727 7.08210449 -24.02392578 7.33569336 C-29.39330394 8.53422314 -34.36950075 9.11867856 -39.875 9.0625 C-41.02742188 9.05347656 -42.17984375 9.04445313 -43.3671875 9.03515625 C-44.23601562 9.02355469 -45.10484375 9.01195312 -46 9 C-46 8.67 -46 8.34 -46 8 C-45.44352783 7.90501221 -44.88705566 7.81002441 -44.3137207 7.7121582 C-32.6370144 5.70057962 -21.08969282 3.46624779 -9.61645508 0.48754883 C-8.79040771 0.2789624 -7.96436035 0.07037598 -7.11328125 -0.14453125 C-6.38923096 -0.33378174 -5.66518066 -0.52303223 -4.91918945 -0.71801758 C-3 -1 -3 -1 0 0 Z " fill="#A37A2C" transform="translate(491,670)"/>
<path d="M0 0 C0.33 0.66 0.66 1.32 1 2 C-2.91303607 11.21046757 -8.83635632 19.32533077 -14.76269531 27.31933594 C-16.87532458 30.1889768 -18.9343961 33.0963931 -21 36 C-21.66 35.67 -22.32 35.34 -23 35 C-20.622511 28.61831901 -20.622511 28.61831901 -17.6796875 25.6953125 C-14.70419973 22.70247494 -12.55560029 19.61248325 -10.3125 16.0625 C-9.92255859 15.46759766 -9.53261719 14.87269531 -9.13085938 14.25976562 C-6.80320958 10.61908261 -5.19679722 7.19199028 -4 3 C-3.34 3 -2.68 3 -2 3 C-2 2.34 -2 1.68 -2 1 C-1.34 0.67 -0.68 0.34 0 0 Z " fill="#A57A2B" transform="translate(556,533)"/>
<path d="M0 0 C16.3301351 -0.55183185 31.18532556 2.12196679 47 6 C47 6.33 47 6.66 47 7 C41.81519287 7.31743717 37.3307297 6.72757929 32.25 5.625 C25.09291617 4.08979471 17.99699208 3.30114838 10.70214844 2.73486328 C9.88907227 2.66638184 9.07599609 2.59790039 8.23828125 2.52734375 C7.156073 2.44601196 7.156073 2.44601196 6.05200195 2.36303711 C3.75052671 1.95586356 2.03280732 1.13296043 0 0 Z " fill="#957129" transform="translate(543,352)"/>
<path d="M0 0 C5.06794894 -0.02496148 10.13586106 -0.0429822 15.20385742 -0.05493164 C16.92326482 -0.05992009 18.64266806 -0.06671324 20.36206055 -0.07543945 C42.45729505 -0.18466277 42.45729505 -0.18466277 48 1 C48.66 1.66 49.32 2.32 50 3 C38.62294184 3.13950071 27.35226427 2.72877526 16 2 C14.43492348 1.90319784 12.8698193 1.80684178 11.3046875 1.7109375 C7.5361215 1.47906963 3.76797502 1.2412736 0 1 C0 0.67 0 0.34 0 0 Z " fill="#1F2B1B" transform="translate(504,358)"/>
<path d="M0 0 C0.88602402 0.00222061 1.77204803 0.00444122 2.68492126 0.00672913 C3.68588333 0.00680466 4.6868454 0.00688019 5.71813965 0.00695801 C6.80666733 0.01211929 7.89519501 0.01728058 9.01670837 0.02259827 C10.67928932 0.02472069 10.67928932 0.02472069 12.37545776 0.02688599 C15.93168281 0.03250418 19.48784596 0.04505977 23.04405212 0.05775452 C25.44834809 0.06276717 27.85264504 0.06733048 30.25694275 0.07142639 C36.16516716 0.08247952 42.07335522 0.09923535 47.98155212 0.12025452 C47.98155212 0.45025452 47.98155212 0.78025452 47.98155212 1.12025452 C47.08323669 1.14531067 46.18492126 1.17036682 45.25938416 1.19618225 C41.93080343 1.29124145 38.60240219 1.39047873 35.27403259 1.49256897 C33.83267592 1.53591682 32.39126795 1.57759203 30.94981384 1.61756897 C28.87950671 1.6752754 26.80945781 1.73896822 24.73936462 1.80384827 C23.49300232 1.84050598 22.24664001 1.8771637 20.96250916 1.91493225 C18.05518271 1.9231493 18.05518271 1.9231493 15.98155212 3.12025452 C13.30403794 3.2183531 10.65845495 3.25929422 7.98155212 3.24525452 C6.8755365 3.2510553 6.8755365 3.2510553 5.74717712 3.25697327 C0.23487172 3.24691432 0.23487172 3.24691432 -2.01844788 2.12025452 C-2.01844788 4.43025452 -2.01844788 6.74025452 -2.01844788 9.12025452 C-2.34844788 9.12025452 -2.67844788 9.12025452 -3.01844788 9.12025452 C-3.11610413 2.96791077 -3.11610413 2.96791077 -3.01844788 1.12025452 C-2.01844788 0.12025452 -2.01844788 0.12025452 0 0 Z " fill="#A06E1B" transform="translate(312.01844787597656,295.87974548339844)"/>
<path d="M0 0 C0.7421875 1.65234375 0.7421875 1.65234375 1 4 C-0.5546875 6.62890625 -0.5546875 6.62890625 -2.875 9.5625 C-3.28339111 10.08481201 -3.69178223 10.60712402 -4.11254883 11.14526367 C-5.39431791 12.77528885 -6.69454326 14.38890645 -8 16 C-8.79019531 16.98484375 -9.58039062 17.9696875 -10.39453125 18.984375 C-14.51192029 24.06272196 -18.71835954 29.05964562 -23 34 C-23.99 33.67 -24.98 33.34 -26 33 C-25.01773438 31.9790625 -25.01773438 31.9790625 -24.015625 30.9375 C-18.46715009 25.07769399 -13.33309138 19.02851354 -8.5 12.5625 C-7.74444824 11.55219727 -7.74444824 11.55219727 -6.97363281 10.52148438 C-4.45686577 7.1101319 -2.10348387 3.68820314 0 0 Z " fill="#263A2A" transform="translate(715,702)"/>
<path d="M0 0 C3.63 0.66 7.26 1.32 11 2 C11 2.33 11 2.66 11 3 C-11.44 3 -33.88 3 -57 3 C-57 2.67 -57 2.34 -57 2 C-38.19 2 -19.38 2 0 2 C0 1.34 0 0.68 0 0 Z " fill="#A06D1A" transform="translate(409,232)"/>
<path d="M0 0 C7.1178153 2.03807293 14.06707281 4.40344742 21 7 C21 5.68 21 4.36 21 3 C21.66 3 22.32 3 23 3 C23.66 5.97 24.32 8.94 25 12 C20.51313495 10.61942614 16.36934749 8.83368634 12.1484375 6.8046875 C9.75805222 5.76616652 9.75805222 5.76616652 6 6 C4 4 2 2 0 0 Z " fill="#997830" transform="translate(609,364)"/>
<path d="M0 0 C-10.41402652 5.53258344 -24.51525786 4.25302981 -36 4 C-36 3.67 -36 3.34 -36 3 C-34.35 2.67 -32.7 2.34 -31 2 C-31 1.67 -31 1.34 -31 1 C-27.52099567 0.82982885 -24.041776 0.66451529 -20.5625 0.5 C-19.58861328 0.45230469 -18.61472656 0.40460937 -17.61132812 0.35546875 C-11.73282211 0.08022098 -5.88489861 -0.04868582 0 0 Z " fill="#9F772D" transform="translate(444,679)"/>
<path d="M0 0 C0.33 0 0.66 0 1 0 C1.40208107 11.66035105 -0.59325872 22.87131182 -4 34 C-4.33 34 -4.66 34 -5 34 C-5.14621118 28.1515527 -4.64599693 22.75292499 -3.625 17 C-3.43550781 15.86691406 -3.43550781 15.86691406 -3.2421875 14.7109375 C-2.38766359 9.73760835 -1.27597512 4.88199178 0 0 Z " fill="#A27728" transform="translate(571,474)"/>
<path d="M0 0 C-1 3 -1 3 -2.7421875 4.16796875 C-3.44601562 4.50441406 -4.14984375 4.84085938 -4.875 5.1875 C-5.57367187 5.53167969 -6.27234375 5.87585938 -6.9921875 6.23046875 C-9 7 -9 7 -12 7 C-12.33 7.66 -12.66 8.32 -13 9 C-17.55706182 11.37097727 -21.85004829 12.38624638 -27 12 C-23.80094543 9.32118003 -20.66089112 7.97579596 -16.75 6.5625 C-12.82382928 5.1050913 -9.0327174 3.61245653 -5.3125 1.6875 C-2 0 -2 0 0 0 Z " fill="#A3782A" transform="translate(525,655)"/>
<path d="M0 0 C6.53660686 -0.58103172 12.09262683 1.19961895 18 4 C18.33 4.66 18.66 5.32 19 6 C19.969375 6.309375 20.93875 6.61875 21.9375 6.9375 C25 8 25 8 27 11 C23.03698462 10.50462308 20.0434185 9.02612684 16.53515625 7.1875 C11.2079806 4.69218198 5.55948127 2.90521549 0 1 C0 0.67 0 0.34 0 0 Z " fill="#9B7123" transform="translate(574,435)"/>
<path d="M0 0 C8.92998375 1.31446023 17.0373586 11.72982981 23 18 C22.01 18.33 21.02 18.66 20 19 C19.55011719 18.52691406 19.10023438 18.05382812 18.63671875 17.56640625 C13.79493045 12.58877619 8.67192158 8.18525858 3.22265625 3.8828125 C1 2 1 2 0 0 Z " fill="#2A3F2D" transform="translate(672,409)"/>
<path d="M0 0 C8.47443032 2.33777388 15.5147726 6.5173816 23 11 C20.56046162 11.88219596 19.38027239 12.14055379 16.90942383 11.22729492 C15.8192395 10.61011597 15.8192395 10.61011597 14.70703125 9.98046875 C13.91232422 9.53509766 13.11761719 9.08972656 12.29882812 8.63085938 C11.47833984 8.15455078 10.65785156 7.67824219 9.8125 7.1875 C8.98041016 6.72279297 8.14832031 6.25808594 7.29101562 5.77929688 C1.14363083 2.28726167 1.14363083 2.28726167 0 0 Z " fill="#A37829" transform="translate(488,310)"/>
<path d="M0 0 C2.11783631 3.17675446 2.56551932 5.09464555 3.1875 8.8125 C3.36667969 9.82957031 3.54585937 10.84664062 3.73046875 11.89453125 C4.01219895 15.14055314 3.6695855 17.82303049 3 21 C2.67 21 2.34 21 2 21 C2 19.35 2 17.7 2 16 C1.34 15.67 0.68 15.34 0 15 C0.061875 14.236875 0.12375 13.47375 0.1875 12.6875 C0.30007713 9.9652429 0.30007713 9.9652429 -1.5 8.5625 C-3 7 -3 7 -3.1875 3.8125 C-3.125625 2.884375 -3.06375 1.95625 -3 1 C-2.01 2.485 -2.01 2.485 -1 4 C-0.67 2.68 -0.34 1.36 0 0 Z " fill="#35452F" transform="translate(675,533)"/>
<path d="M0 0 C-6.20597385 6.20597385 -14.75484554 5.66836411 -23 6 C-16.84406639 0.75496826 -7.90008717 -0.53864231 0 0 Z " fill="#A17A2D" transform="translate(469,611)"/>
<path d="M0 0 C0.66 0 1.32 0 2 0 C0.70021649 7.79870106 -2.26646758 14.06126522 -6 21 C-7.10861925 17.72234308 -6.92934526 16.04690481 -5.56640625 12.890625 C-5.24736328 12.13652344 -4.92832031 11.38242187 -4.59960938 10.60546875 C-4.08624023 9.43951172 -4.08624023 9.43951172 -3.5625 8.25 C-3.22412109 7.45722656 -2.88574219 6.66445313 -2.53710938 5.84765625 C-1.70154018 3.89407194 -0.85209558 1.9464328 0 0 Z " fill="#263927" transform="translate(669,643)"/>
<path d="M0 0 C2.34054554 2.34054554 2.99321065 4.21475064 4.125 7.3125 C4.47820313 8.25738281 4.83140625 9.20226562 5.1953125 10.17578125 C5.98399678 12.94383335 6.15620348 15.14147629 6 18 C5.34 18 4.68 18 4 18 C3.73445312 17.30132813 3.46890625 16.60265625 3.1953125 15.8828125 C2.84210937 14.97273437 2.48890625 14.06265625 2.125 13.125 C1.77695312 12.22007812 1.42890625 11.31515625 1.0703125 10.3828125 C0.11469105 7.87782993 0.11469105 7.87782993 -2 6 C-1.33333333 4 -0.66666667 2 0 0 Z " fill="#33402B" transform="translate(668,510)"/>
<path d="M0 0 C1.09362142 3.25170103 0.93111886 4.97353889 -0.375 8.125 C-0.65085937 8.80820312 -0.92671875 9.49140625 -1.2109375 10.1953125 C-2.76412441 13.74765088 -4.73860787 16.84775642 -7 20 C-7.66 20 -8.32 20 -9 20 C-7.55676531 15.26210835 -5.62773267 11.01141849 -3.375 6.625 C-2.88773438 5.66400391 -2.88773438 5.66400391 -2.390625 4.68359375 C-1.59742593 3.12052499 -0.79922969 1.55999378 0 0 Z " fill="#263A2B" transform="translate(730,674)"/>
<path d="M0 0 C0.66 0.33 1.32 0.66 2 1 C-2.32893185 6.18419194 -6.76564995 10.72706118 -12 15 C-12.66 14.67 -13.32 14.34 -14 14 C-9.72706118 8.76564995 -5.18419194 4.32893185 0 0 Z " fill="#A47826" transform="translate(528,572)"/>
<path d="M0 0 C1 4 1 4 0.28735352 5.83105469 C-0.09493408 6.43852539 -0.47722168 7.04599609 -0.87109375 7.671875 C-1.28037109 8.33574219 -1.68964844 8.99960937 -2.11132812 9.68359375 C-2.54896484 10.36550781 -2.98660156 11.04742188 -3.4375 11.75 C-3.87126953 12.44738281 -4.30503906 13.14476562 -4.75195312 13.86328125 C-5.82352027 15.58249886 -6.91032356 17.292203 -8 19 C-8.99 18.67 -9.98 18.34 -11 18 C-7.37 12.06 -3.74 6.12 0 0 Z " fill="#A27628" transform="translate(616,565)"/>
<path d="M0 0 C7.07403834 0.3215472 12.97386577 3.41663627 19 7 C19.33 7.66 19.66 8.32 20 9 C12.90492587 7.34998276 6.54766701 4.13106483 0 1 C0 0.67 0 0.34 0 0 Z " fill="#243421" transform="translate(615,376)"/>
<path d="M0 0 C-3.90831089 3.90831089 -10.68657206 3.5500956 -16 4 C-19.10999844 3.89619498 -21.92576365 3.53004075 -25 3 C-25 2.67 -25 2.34 -25 2 C-16.61090382 0.7472283 -8.50262969 -0.36011137 0 0 Z " fill="#293E2C" transform="translate(567,738)"/>
<path d="M0 0 C3.79939657 1.37105693 6.88690684 3.11560012 10.1875 5.4375 C11.04730469 6.03433594 11.90710938 6.63117188 12.79296875 7.24609375 C15 9 15 9 17 12 C12.99411536 11.35983442 10.15275995 9.34641526 6.8125 7.125 C5.74644531 6.42632812 4.68039062 5.72765625 3.58203125 5.0078125 C1 3 1 3 0 0 Z " fill="#2A3925" transform="translate(612,442)"/>
<path d="M0 0 C-4.96200888 4.38946939 -10.50691805 4.12748043 -16.875 4.0625 C-18.02742188 4.05347656 -19.17984375 4.04445313 -20.3671875 4.03515625 C-21.23601562 4.02355469 -22.10484375 4.01195312 -23 4 C-23 3.67 -23 3.34 -23 3 C-20.29273634 2.4935186 -17.58442876 1.994649 -14.875 1.5 C-13.73417969 1.28537109 -13.73417969 1.28537109 -12.5703125 1.06640625 C-8.31957086 0.29687544 -4.34140803 -0.16644376 0 0 Z " fill="#9F701F" transform="translate(468,675)"/>
<path d="M0 0 C2.68756955 -0.02720824 5.37485798 -0.0469388 8.0625 -0.0625 C8.81466797 -0.07087891 9.56683594 -0.07925781 10.34179688 -0.08789062 C15.00633118 -0.10808341 19.39923173 0.22404041 24 1 C23.67 1.66 23.34 2.32 23 3 C15.41 3 7.82 3 0 3 C0 2.01 0 1.02 0 0 Z " fill="#837642" transform="translate(392,613)"/>
<path d="M0 0 C0 0.66 0 1.32 0 2 C-1.37695312 3.14501953 -1.37695312 3.14501953 -3.28125 4.3828125 C-4.29638672 5.04990234 -4.29638672 5.04990234 -5.33203125 5.73046875 C-6.40517578 6.42076172 -6.40517578 6.42076172 -7.5 7.125 C-8.57314453 7.82689453 -8.57314453 7.82689453 -9.66796875 8.54296875 C-11.44126915 9.70152501 -13.2201309 10.85156066 -15 12 C-15.66 11.67 -16.32 11.34 -17 11 C-14.33687484 8.05849939 -11.22754654 6.0071969 -7.9375 3.8125 C-6.87402344 3.09707031 -5.81054688 2.38164063 -4.71484375 1.64453125 C-2 0 -2 0 0 0 Z " fill="#A37829" transform="translate(512,588)"/>
<path d="M0 0 C4.2829452 0.5479083 6.85135641 2.02432804 10.3125 4.5625 C11.19550781 5.20316406 12.07851563 5.84382813 12.98828125 6.50390625 C13.65214844 6.99761719 14.31601562 7.49132812 15 8 C14.67 8.99 14.34 9.98 14 11 C11.6638026 9.35810616 9.33099647 7.7117475 7 6.0625 C6.33226562 5.59392578 5.66453125 5.12535156 4.9765625 4.64257812 C3.29970233 3.45337627 1.64761213 2.22940446 0 1 C0 0.67 0 0.34 0 0 Z " fill="#233627" transform="translate(653,395)"/>
<path d="M0 0 C-2.10016623 1.17441535 -4.20458755 2.33964012 -6.3125 3.5 C-6.90740234 3.83386719 -7.50230469 4.16773438 -8.11523438 4.51171875 C-10.95828844 6.06825114 -12.70660988 7 -16 7 C-16 6.34 -16 5.68 -16 5 C-14.09118566 3.96455826 -12.17260796 2.94709915 -10.25 1.9375 C-8.64898438 1.08478516 -8.64898438 1.08478516 -7.015625 0.21484375 C-3.97406463 -1.01044806 -2.95106435 -1.25348607 0 0 Z " fill="#243626" transform="translate(608,723)"/>
<path d="M0 0 C0.33 0 0.66 0 1 0 C0.47788565 5.84768068 -0.55371467 10.63698985 -3 16 C-3.99 16.33 -4.98 16.66 -6 17 C-4.13236819 11.27789404 -2.14710968 5.62338249 0 0 Z " fill="#9F7426" transform="translate(629,535)"/>
<path d="M0 0 C-4.47630908 3.03233841 -10.72352394 6.60696298 -16.27734375 5.578125 C-16.84582031 5.38734375 -17.41429687 5.1965625 -18 5 C-17.01 5 -16.02 5 -15 5 C-15 4.34 -15 3.68 -15 3 C-12.87790224 2.30359327 -10.75221473 1.61811643 -8.625 0.9375 C-6.84996094 0.36322266 -6.84996094 0.36322266 -5.0390625 -0.22265625 C-2 -1 -2 -1 0 0 Z " fill="#273E2D" transform="translate(616,783)"/>
<path d="M0 0 C0.33 0.99 0.66 1.98 1 3 C0.34 3 -0.32 3 -1 3 C-1 3.66 -1 4.32 -1 5 C-2.64453125 6.76171875 -2.64453125 6.76171875 -4.8125 8.6875 C-5.52019531 9.33074219 -6.22789062 9.97398437 -6.95703125 10.63671875 C-7.63121094 11.08660156 -8.30539062 11.53648437 -9 12 C-9.99 11.67 -10.98 11.34 -12 11 C-10.88121617 9.82737096 -9.75476949 8.66204862 -8.625 7.5 C-7.68527344 6.52546875 -7.68527344 6.52546875 -6.7265625 5.53125 C-5 4 -5 4 -3 4 C-2.67 3.01 -2.34 2.02 -2 1 C-1.34 0.67 -0.68 0.34 0 0 Z " fill="#A27829" transform="translate(579,615)"/>
<path d="M0 0 C-1.44536787 3.5667949 -3.19740946 5.18530899 -6.375 7.3125 C-7.14585937 7.84488281 -7.91671875 8.37726562 -8.7109375 8.92578125 C-11 10 -11 10 -13.2890625 9.66796875 C-13.85367188 9.44753906 -14.41828125 9.22710938 -15 9 C-12.87885041 7.49428254 -10.75346385 5.99531321 -8.625 4.5 C-8.02171875 4.07074219 -7.4184375 3.64148438 -6.796875 3.19921875 C-2.2265625 0 -2.2265625 0 0 0 Z " fill="#A47929" transform="translate(556,636)"/>
<path d="M0 0 C4.22489602 0.53280216 6.54080716 1.87678199 9.8125 4.5625 C10.60269531 5.20316406 11.39289062 5.84382813 12.20703125 6.50390625 C12.79871094 6.99761719 13.39039063 7.49132812 14 8 C13.67 8.99 13.34 9.98 13 11 C10.83040701 9.35790421 8.66427468 7.71157832 6.5 6.0625 C5.87996094 5.59392578 5.25992188 5.12535156 4.62109375 4.64257812 C3.06233214 3.45209536 1.52890836 2.22858708 0 1 C0 0.67 0 0.34 0 0 Z " fill="#A37829" transform="translate(554,271)"/>
<path d="M0 0 C4.455 0.99 4.455 0.99 9 2 C5 4 5 4 3 4 C2.67 6.64 2.34 9.28 2 12 C1.67 12 1.34 12 1 12 C1 9.03 1 6.06 1 3 C0.34 2.67 -0.32 2.34 -1 2 C-0.67 1.34 -0.34 0.68 0 0 Z " fill="#9D803B" transform="translate(569,432)"/>
<path d="M0 0 C3.66579598 0.58496744 6.50499144 1.57826707 9.75 3.375 C10.52859375 3.79523438 11.3071875 4.21546875 12.109375 4.6484375 C14 6 14 6 15 9 C11.32305352 7.62859834 8.04681411 5.96304199 4.6875 3.9375 C3.80449219 3.41027344 2.92148437 2.88304687 2.01171875 2.33984375 C1.34785156 1.89769531 0.68398438 1.45554687 0 1 C0 0.67 0 0.34 0 0 Z " fill="#A27627" transform="translate(537,261)"/>
<path d="M0 0 C3.3 0 6.6 0 10 0 C10 0.66 10 1.32 10 2 C10.99 2.33 11.98 2.66 13 3 C13 3.99 13 4.98 13 6 C11.58034858 5.57228451 10.1643776 5.13234457 8.75 4.6875 C7.96109375 4.44386719 7.1721875 4.20023438 6.359375 3.94921875 C4 3 4 3 0 0 Z " fill="#A57A2C" transform="translate(508,248)"/>
<path d="M0 0 C0.33 0 0.66 0 1 0 C1.51941561 6.10313344 0.11313722 10.70539436 -3 16 C-3.66 16.33 -4.32 16.66 -5 17 C-1.92482916 5.47835991 -1.92482916 5.47835991 0 0 Z " fill="#203325" transform="translate(739,649)"/>
<path d="M0 0 C0 3 0 3 -1.4609375 4.5 C-2.09257813 4.995 -2.72421875 5.49 -3.375 6 C-5.86340153 7.96614442 -7.1957287 9.29359306 -9 12 C-9.66 11.67 -10.32 11.34 -11 11 C-8.01872456 5.87220625 -4.96646236 3.24730231 0 0 Z " fill="#213424" transform="translate(640,695)"/>
<path d="M0 0 C0.33 0 0.66 0 1 0 C1 4.62 1 9.24 1 14 C0.34 14 -0.32 14 -1 14 C-1.33 15.32 -1.66 16.64 -2 18 C-1.85860519 15.74971671 -1.71171997 13.49977794 -1.5625 11.25 C-1.48128906 9.99703125 -1.40007813 8.7440625 -1.31640625 7.453125 C-1.07484478 4.81682447 -0.75716066 2.51962706 0 0 Z " fill="#A07122" transform="translate(639,488)"/>
<path d="M0 0 C6.04801071 0.54981916 11.30601106 1.90429574 17 4 C17 4.33 17 4.66 17 5 C15.41632253 4.85795259 13.83306682 4.71119847 12.25 4.5625 C11.36828125 4.48128906 10.4865625 4.40007812 9.578125 4.31640625 C7.30649548 4.03761535 5.20148177 3.61209423 3 3 C3 2.34 3 1.68 3 1 C2.01 0.67 1.02 0.34 0 0 Z " fill="#9C7425" transform="translate(591,359)"/>
<path d="M0 0 C0 0.66 0 1.32 0 2 C-2.08203125 3.5078125 -2.08203125 3.5078125 -4.8125 5.125 C-5.70582031 5.66382813 -6.59914063 6.20265625 -7.51953125 6.7578125 C-10 8 -10 8 -13 8 C-13 7.34 -13 6.68 -13 6 C-11.21118264 4.99491199 -9.41885304 3.99607264 -7.625 3 C-6.62726562 2.443125 -5.62953125 1.88625 -4.6015625 1.3125 C-2 0 -2 0 0 0 Z " fill="#A4782A" transform="translate(540,647)"/>
<path d="M0 0 C2.79958342 4.19937513 3.11598878 6.09705438 3.0625 11.125 C3.05347656 12.22070312 3.04445313 13.31640625 3.03515625 14.4453125 C3.02355469 15.28835938 3.01195312 16.13140625 3 17 C0.04335518 11.27901246 -0.10755105 6.34551212 0 0 Z " fill="#1C2E21" transform="translate(745,531)"/>
<path d="M0 0 C5.70709064 0.46588495 9.15939723 1.93757784 14 5 C13.67 5.66 13.34 6.32 13 7 C8.71 5.02 4.42 3.04 0 1 C0 0.67 0 0.34 0 0 Z " fill="#A27525" transform="translate(522,254)"/>
<path d="M0 0 C1.41702513 0.14230808 2.8336096 0.28900746 4.25 0.4375 C5.43335938 0.55931641 5.43335938 0.55931641 6.640625 0.68359375 C8.82364639 0.97634993 10.8773182 1.42064419 13 2 C13 2.99 13 3.98 13 5 C11.01853549 4.55170486 9.03985789 4.09107502 7.0625 3.625 C5.96035156 3.36976563 4.85820313 3.11453125 3.72265625 2.8515625 C2.82417969 2.57054687 1.92570313 2.28953125 1 2 C0.67 1.34 0.34 0.68 0 0 Z " fill="#2A3622" transform="translate(588,367)"/>
<path d="M0 0 C1.65 0.33 3.3 0.66 5 1 C2.68118495 3.67901932 0.68185532 4.66204403 -2.6875 5.6875 C-3.89986328 6.06455078 -3.89986328 6.06455078 -5.13671875 6.44921875 C-6.05904297 6.72185547 -6.05904297 6.72185547 -7 7 C-6.67 6.01 -6.34 5.02 -6 4 C-4.34795544 3.29788106 -2.68076231 2.63028587 -1 2 C-0.67 1.34 -0.34 0.68 0 0 Z " fill="#A37929" transform="translate(488,600)"/>
<path d="M0 0 C-1.50412782 3.00825564 -3.86048301 3.30662971 -6.921875 4.40234375 C-9.35135321 5.10104707 -11.48568864 5.23571669 -14 5 C-10.63156097 2.05261585 -4.40469071 -2.20234535 0 0 Z " fill="#213727" transform="translate(631,777)"/>
<path d="M0 0 C5.65394631 -0.34615998 9.03006806 0.56574762 14 3 C12.328125 4.1171875 12.328125 4.1171875 10 5 C7.421875 4.3203125 7.421875 4.3203125 4.75 3.125 C3.85796875 2.73570312 2.9659375 2.34640625 2.046875 1.9453125 C1.37140625 1.63335937 0.6959375 1.32140625 0 1 C0 0.67 0 0.34 0 0 Z " fill="#9E782B" transform="translate(574,435)"/>
<path d="M0 0 C0.66 0.33 1.32 0.66 2 1 C-0.5550839 3.98093122 -3.38281401 5.52359755 -7 7 C-9.19140625 6.578125 -9.19140625 6.578125 -11 6 C-9.21385682 4.96953278 -7.42089982 3.95086764 -5.625 2.9375 C-4.62726562 2.36902344 -3.62953125 1.80054688 -2.6015625 1.21484375 C-1.74304688 0.81394531 -0.88453125 0.41304687 0 0 Z " fill="#203627" transform="translate(645,768)"/>
<path d="M0 0 C0.33 0.99 0.66 1.98 1 3 C-0.109375 5.0078125 -0.109375 5.0078125 -1.75 7.125 C-2.28109375 7.82882812 -2.8121875 8.53265625 -3.359375 9.2578125 C-5 11 -5 11 -8 12 C-6.59023295 8.96147295 -4.91129772 6.4060405 -2.875 3.75 C-2.06675781 2.69039062 -2.06675781 2.69039062 -1.2421875 1.609375 C-0.83226562 1.07828125 -0.42234375 0.5471875 0 0 Z " fill="#A17525" transform="translate(604,585)"/>
<path d="M0 0 C0.33 0 0.66 0 1 0 C1.29341888 5.67276511 1.00559652 8.99067246 -2 14 C-3.25127906 10.45332822 -2.72285053 8.27746562 -1.5625 4.75 C-1.27503906 3.85796875 -0.98757813 2.9659375 -0.69140625 2.046875 C-0.46324219 1.37140625 -0.23507812 0.6959375 0 0 Z " fill="#9D7123" transform="translate(633,520)"/>
<path d="M0 0 C2.9512645 1.47563225 3.06923915 3.50079352 4.125 6.5625 C4.47820313 7.57441406 4.83140625 8.58632813 5.1953125 9.62890625 C5.46085938 10.41136719 5.72640625 11.19382812 6 12 C3 11 3 11 1.3125 8.25 C0.06049331 5.14979295 -0.28970125 3.28328088 0 0 Z " fill="#263321" transform="translate(662,496)"/>
<path d="M0 0 C1.7492214 -0.08142927 3.49954542 -0.13938541 5.25 -0.1875 C6.22453125 -0.22230469 7.1990625 -0.25710937 8.203125 -0.29296875 C11.37468742 0.03924798 12.67040307 0.88672279 15 3 C12.87436897 2.88623383 10.7494739 2.75864369 8.625 2.625 C7.44164062 2.55539063 6.25828125 2.48578125 5.0390625 2.4140625 C2 2 2 2 0 0 Z " fill="#A27423" transform="translate(462,237)"/>
<path d="M0 0 C1.051875 -0.00257813 2.10375 -0.00515625 3.1875 -0.0078125 C6 0.125 6 0.125 9 1.125 C8.67 1.785 8.34 2.445 8 3.125 C5.72942623 3.17898987 3.45848712 3.21778742 1.1875 3.25 C-0.70935547 3.28480469 -0.70935547 3.28480469 -2.64453125 3.3203125 C-6 3.125 -6 3.125 -9 1.125 C-5.77717587 0.05072529 -3.38488847 -0.0082963 0 0 Z " fill="#817644" transform="translate(382,612.875)"/>
<path d="M0 0 C4.35522853 0.50642192 7.44239635 1.38411497 11 4 C11 4.66 11 5.32 11 6 C6.80639551 5.32902328 3.59665648 3.1441606 0 1 C0 0.67 0 0.34 0 0 Z " fill="#223525" transform="translate(639,387)"/>
<path d="M0 0 C9.59453303 1.74259681 9.59453303 1.74259681 13 5 C7.85611138 4.56407724 4.24514783 4.18386087 0 1 C0 0.67 0 0.34 0 0 Z " fill="#A17426" transform="translate(474,305)"/>
<path d="M0 0 C0.33 0.99 0.66 1.98 1 3 C-0.40445835 5.2636564 -2.1967913 7.0208685 -4 9 C-4.99 8.67 -5.98 8.34 -7 8 C-4.69 5.36 -2.38 2.72 0 0 Z " fill="#A37728" transform="translate(588,605)"/>
<path d="M0 0 C4.37859255 0.50522222 6.81651224 3.17827222 10 6 C9.34 6.66 8.68 7.32 8 8 C6.66372225 6.85760183 5.33104612 5.71098945 4 4.5625 C3.2575 3.92441406 2.515 3.28632813 1.75 2.62890625 C1.1725 2.09136719 0.595 1.55382812 0 1 C0 0.67 0 0.34 0 0 Z " fill="#223526" transform="translate(672,409)"/>
<path d="M0 0 C0.79921875 0.02707031 1.5984375 0.05414062 2.421875 0.08203125 C3.02515625 0.11683594 3.6284375 0.15164063 4.25 0.1875 C1.08759418 2.29577055 -0.25657469 2.52567465 -3.9375 2.8125 C-5.28908203 2.92464844 -5.28908203 2.92464844 -6.66796875 3.0390625 C-7.69857422 3.11253906 -7.69857422 3.11253906 -8.75 3.1875 C-5.74754796 0.56379764 -3.97853212 -0.17552348 0 0 Z " fill="#9B6F1E" transform="translate(454.75,613.8125)"/>
<path d="M0 0 C0.33 0 0.66 0 1 0 C1.24875561 2.26877104 1.47339246 4.54019735 1.6875 6.8125 C1.81511719 8.07707031 1.94273437 9.34164062 2.07421875 10.64453125 C2 14 2 14 -1 17 C-0.67 11.39 -0.34 5.78 0 0 Z " fill="#43563D" transform="translate(678,595)"/>
<path d="M0 0 C1.45947705 0.06006078 2.91779272 0.1488689 4.375 0.25 C5.59316406 0.31960938 5.59316406 0.31960938 6.8359375 0.390625 C9 1 9 1 10.2890625 3.046875 C10.64097656 4.01367188 10.64097656 4.01367188 11 5 C9.53932801 4.54917531 8.08151968 4.08906463 6.625 3.625 C5.81289063 3.36976563 5.00078125 3.11453125 4.1640625 2.8515625 C2 2 2 2 0 0 Z " fill="#394830" transform="translate(589,432)"/>
<path d="M0 0 C-0.33 0.66 -0.66 1.32 -1 2 C-2.258125 2.04125 -3.51625 2.0825 -4.8125 2.125 C-5.52019531 2.14820313 -6.22789062 2.17140625 -6.95703125 2.1953125 C-9 2 -9 2 -12 0 C-10.56359829 -0.19573608 -9.12580496 -0.38127816 -7.6875 -0.5625 C-6.88699219 -0.66691406 -6.08648438 -0.77132813 -5.26171875 -0.87890625 C-3 -1 -3 -1 0 0 Z " fill="#303822" transform="translate(568,361)"/>
<path d="M0 0 C6.625 -0.125 6.625 -0.125 10 1 C10 1.66 10 2.32 10 3 C10.66 3.33 11.32 3.66 12 4 C10.3733152 3.71788123 8.74867104 3.42397625 7.125 3.125 C5.76761719 2.88136719 5.76761719 2.88136719 4.3828125 2.6328125 C2 2 2 2 0 0 Z " fill="#A37526" transform="translate(495,244)"/>
<path d="M0 0 C0.99 0.33 1.98 0.66 3 1 C1.35 3.64 -0.3 6.28 -2 9 C-3 5 -3 5 -1.5625 2.25 C-1.046875 1.5075 -0.53125 0.765 0 0 Z " fill="#213423" transform="translate(659,666)"/>
<path d="M0 0 C3.36591866 1.44253657 5.51047079 3.33264727 8 6 C7.67 6.99 7.34 7.98 7 9 C5.83037314 7.69013727 4.66437056 6.3770374 3.5 5.0625 C2.8503125 4.33160156 2.200625 3.60070312 1.53125 2.84765625 C0 1 0 1 0 0 Z " fill="#1E3122" transform="translate(693,428)"/>
<path d="M0 0 C1.13643966 3.40931897 0.86747764 4.00335456 -0.4375 7.1875 C-0.86869141 8.26064453 -0.86869141 8.26064453 -1.30859375 9.35546875 C-1.53675781 9.89816406 -1.76492188 10.44085937 -2 11 C-2.33 11 -2.66 11 -3 11 C-2.67 8.03 -2.34 5.06 -2 2 C-1.34 2 -0.68 2 0 2 C0 1.34 0 0.68 0 0 Z " fill="#A17525" transform="translate(564,512)"/>
<path d="M0 0 C0.66 0 1.32 0 2 0 C3.28317892 3.84953676 3.06643637 6.94738135 3 11 C0.43383368 7.15075052 0.44902324 4.5650696 0 0 Z " fill="#1E3224" transform="translate(741,514)"/>
<path d="M0 0 C2.3125 1.5 2.3125 1.5 4 3 C-0.51617599 3.07654536 -4.59085217 3.10228696 -9 2 C-5.87348943 0.14725299 -3.62826895 -0.45353362 0 0 Z " fill="#374D36" transform="translate(529,417)"/>
<path d="M0 0 C3.3 0.33 6.6 0.66 10 1 C10 1.33 10 1.66 10 2 C5.05 2.33 0.1 2.66 -5 3 C-5 2.67 -5 2.34 -5 2 C-3.35 2 -1.7 2 0 2 C0 1.34 0 0.68 0 0 Z " fill="#3B5842" transform="translate(557,794)"/>
<path d="M0 0 C0.33 0.99 0.66 1.98 1 3 C-0.40445835 5.2636564 -2.1967913 7.0208685 -4 9 C-4.99 8.67 -5.98 8.34 -7 8 C-4.69 5.36 -2.38 2.72 0 0 Z " fill="#203224" transform="translate(696,727)"/>
<path d="M0 0 C1.07349791 4.29399165 0.79682816 5.19495213 -1 9 C-1.99 8.67 -2.98 8.34 -4 8 C-2.68 5.36 -1.36 2.72 0 0 Z " fill="#A07425" transform="translate(622,553)"/>
<path d="M0 0 C0.66 0 1.32 0 2 0 C1.50168276 3.68754757 0.89932357 5.60490662 -2 8 C-1.125 2.25 -1.125 2.25 0 0 Z " fill="#203122" transform="translate(664,656)"/>
<path d="M0 0 C2.1519437 3.22791555 2.20086443 4.28400809 2 8 C1.34 8 0.68 8 0 8 C-0.38063221 5.6739143 -0.71269945 3.33944736 -1 1 C-0.67 0.67 -0.34 0.34 0 0 Z " fill="#263424" transform="translate(672,520)"/>
<path d="M0 0 C0.33 0 0.66 0 1 0 C1 2.97 1 5.94 1 9 C0.01 9 -0.98 9 -2 9 C-1.34 6.03 -0.68 3.06 0 0 Z " fill="#9E7122" transform="translate(636,507)"/>
<path d="M0 0 C2.31 0 4.62 0 7 0 C7 0.33 7 0.66 7 1 C4.69 1 2.38 1 0 1 C0 0.67 0 0.34 0 0 Z " fill="#3B5C45" transform="translate(484,799)"/>
<path d="M0 0 C1.65 0.33 3.3 0.66 5 1 C5 1.33 5 1.66 5 2 C3.02 2 1.04 2 -1 2 C-0.67 1.34 -0.34 0.68 0 0 Z " fill="#978245" transform="translate(401,684)"/>
<path d="M0 0 C1.65 0.33 3.3 0.66 5 1 C5 1.33 5 1.66 5 2 C3.02 2 1.04 2 -1 2 C-0.67 1.34 -0.34 0.68 0 0 Z " fill="#9C8444" transform="translate(385,684)"/>
<path d="M0 0 C1.65 0 3.3 0 5 0 C4.67 0.66 4.34 1.32 4 2 C2.68 1.67 1.36 1.34 0 1 C0 0.67 0 0.34 0 0 Z " fill="#958245" transform="translate(414,684)"/>
<path d="M0 0 C1.32 0 2.64 0 4 0 C4 0.66 4 1.32 4 2 C2.68 1.67 1.36 1.34 0 1 C0 0.67 0 0.34 0 0 Z " fill="#988446" transform="translate(407,684)"/>
<path d="M0 0 C2.31 0 4.62 0 7 0 C7 0.33 7 0.66 7 1 C4.69 1 2.38 1 0 1 C0 0.67 0 0.34 0 0 Z " fill="#4B5E40" transform="translate(536,422)"/>
<path d="M0 0 C1.98 0.99 1.98 0.99 4 2 C2.68 2 1.36 2 0 2 C0 1.34 0 0.68 0 0 Z " fill="#86763E" transform="translate(570,357)"/>
<path d="M0 0 C1.65 0 3.3 0 5 0 C5 0.33 5 0.66 5 1 C3.35 1 1.7 1 0 1 C0 0.67 0 0.34 0 0 Z " fill="#3E5C45" transform="translate(444,799)"/>
<path d="M0 0 C1.65 0 3.3 0 5 0 C5 0.33 5 0.66 5 1 C3.35 1 1.7 1 0 1 C0 0.67 0 0.34 0 0 Z " fill="#3E5C46" transform="translate(403,799)"/>
<path d="M0 0 C0.99 0.33 1.98 0.66 3 1 C2.01 1.33 1.02 1.66 0 2 C0 1.34 0 0.68 0 0 Z " fill="#837543" transform="translate(368,614)"/>
<path d="M0 0 C0.33 1.32 0.66 2.64 1 4 C0.34 3.01 -0.32 2.02 -1 1 C-0.67 0.67 -0.34 0.34 0 0 Z " fill="#4E5F40" transform="translate(674,544)"/>
<path d="M0 0 C1.32 0.33 2.64 0.66 4 1 C3.01 1.495 3.01 1.495 2 2 C1.34 1.34 0.68 0.68 0 0 Z " fill="#7F733E" transform="translate(596,440)"/>
<path d="M0 0 C0.66 0 1.32 0 2 0 C1.67 0.99 1.34 1.98 1 3 C0.67 2.01 0.34 1.02 0 0 Z " fill="#415B41" transform="translate(610,712)"/>
<path d="M0 0 C1.485 0.99 1.485 0.99 3 2 C2.01 2 1.02 2 0 2 C0 1.34 0 0.68 0 0 Z " fill="#9C8244" transform="translate(375,684)"/>
<path d="M0 0 C0.99 0.33 1.98 0.66 3 1 C2.01 1 1.02 1 0 1 C0 0.67 0 0.34 0 0 Z " fill="#A48742" transform="translate(516,662)"/>
<path d="M0 0 C1 4 1 4 1 4 Z " fill="#475D40" transform="translate(672,625)"/>
<path d="M0 0 C1 4 1 4 1 4 Z " fill="#475E42" transform="translate(673,620)"/>
<path d="M0 0 C1 4 1 4 1 4 Z " fill="#3F5D46" transform="translate(751,600)"/>
<path d="M0 0 C0.66 0 1.32 0 2 0 C2 0.66 2 1.32 2 2 C1.34 2 0.68 2 0 2 C0 1.34 0 0.68 0 0 Z " fill="#5B6340" transform="translate(664,511)"/>
<path d="M0 0 C3 1 3 1 3 1 Z " fill="#3B5B44" transform="translate(531,799)"/>
<path d="M0 0 C3 1 3 1 3 1 Z " fill="#3B5B44" transform="translate(524,799)"/>
<path d="M0 0 C3 1 3 1 3 1 Z " fill="#3C5D45" transform="translate(520,799)"/>
<path d="M0 0 C3 1 3 1 3 1 Z " fill="#3C5B45" transform="translate(511,799)"/>
<path d="M0 0 C3 1 3 1 3 1 Z " fill="#3B5B44" transform="translate(492,799)"/>
<path d="M0 0 C3 1 3 1 3 1 Z " fill="#415D47" transform="translate(436,799)"/>
<path d="M0 0 C3 1 3 1 3 1 Z " fill="#3F5E47" transform="translate(432,799)"/>
<path d="M0 0 C3 1 3 1 3 1 Z " fill="#3E5C46" transform="translate(428,799)"/>
<path d="M0 0 C3 1 3 1 3 1 Z " fill="#9A8446" transform="translate(391,685)"/>
<path d="M0 0 C3 1 3 1 3 1 Z " fill="#9F8443" transform="translate(460,679)"/>
<path d="M0 0 C3 1 3 1 3 1 Z " fill="#837743" transform="translate(422,614)"/>
<path d="" fill="#6D6F44" transform="translate(0,0)"/>
<path d="M0 0 C0.99 0.495 0.99 0.495 2 1 C1.01 1.495 1.01 1.495 0 2 C0 1.34 0 0.68 0 0 Z " fill="#78703C" transform="translate(644,474)"/>
<path d="M0 0 C0.66 0.66 1.32 1.32 2 2 C1.34 2 0.68 2 0 2 C0 1.34 0 0.68 0 0 Z " fill="#877742" transform="translate(622,455)"/>
<path d="M0 0 C0.33 0.66 0.66 1.32 1 2 C0.34 1.67 -0.32 1.34 -1 1 C-0.67 0.67 -0.34 0.34 0 0 Z " fill="#796D3C" transform="translate(625,454)"/>
<path d="M0 0 C3 1 3 1 3 1 Z " fill="#7A7141" transform="translate(575,432)"/>
<path d="M0 0 C3 1 3 1 3 1 Z " fill="#8A793E" transform="translate(590,362)"/>
<path d="M0 0 C3 1 3 1 3 1 Z " fill="#83733E" transform="translate(569,360)"/>
<path d="M0 0 C3 1 3 1 3 1 Z " fill="#89763C" transform="translate(554,355)"/>
<path d="M0 0 C3 1 3 1 3 1 Z " fill="#5C6542" transform="translate(496,355)"/>
<path d="M0 0 C2 1 2 1 2 1 Z " fill="#3C5B43" transform="translate(508,799)"/>
<path d="M0 0 C2 1 2 1 2 1 Z " fill="#3B5C46" transform="translate(503,799)"/>
<path d="M0 0 C2 1 2 1 2 1 Z " fill="#3D5C46" transform="translate(500,799)"/>
<path d="M0 0 C2 1 2 1 2 1 Z " fill="#3B5B46" transform="translate(496,799)"/>
<path d="M0 0 C2 1 2 1 2 1 Z " fill="#3B5B45" transform="translate(480,799)"/>
<path d="M0 0 C2 1 2 1 2 1 Z " fill="#3B5D47" transform="translate(472,799)"/>
<path d="M0 0 C2 1 2 1 2 1 Z " fill="#3D5C47" transform="translate(460,799)"/>
<path d="M0 0 C2 1 2 1 2 1 Z " fill="#3C5D45" transform="translate(456,799)"/>
<path d="M0 0 C2 1 2 1 2 1 Z " fill="#3E5E47" transform="translate(452,799)"/>
<path d="M0 0 C2 1 2 1 2 1 Z " fill="#3F5D46" transform="translate(420,799)"/>
<path d="M0 0 C2 1 2 1 2 1 Z " fill="#3E5D47" transform="translate(415,799)"/>
<path d="M0 0 C2 1 2 1 2 1 Z " fill="#405D47" transform="translate(412,799)"/>
<path d="M0 0 C2 1 2 1 2 1 Z " fill="#3F5D47" transform="translate(400,799)"/>
<path d="M0 0 C2 1 2 1 2 1 Z " fill="#47624B" transform="translate(372,799)"/>
<path d="M0 0 C2 1 2 1 2 1 Z " fill="#3A5A43" transform="translate(552,798)"/>
<path d="M0 0 C2 1 2 1 2 1 Z " fill="#3C5A42" transform="translate(570,796)"/>
<path d="M0 0 C2 1 2 1 2 1 Z " fill="#3C593F" transform="translate(494,740)"/>
<path d="M0 0 C2 1 2 1 2 1 Z " fill="#3D5840" transform="translate(486,740)"/>
<path d="M0 0 C2 1 2 1 2 1 Z " fill="#405A42" transform="translate(560,736)"/>
<path d="M0 0 C2 1 2 1 2 1 Z " fill="#3E583D" transform="translate(604,720)"/>
<path d="" fill="#455D41" transform="translate(0,0)"/>
<path d="M0 0 C2 1 2 1 2 1 Z " fill="#707145" transform="translate(438,688)"/>
<path d="M0 0 C2 1 2 1 2 1 Z " fill="#928145" transform="translate(423,685)"/>
<path d="M0 0 C2 1 2 1 2 1 Z " fill="#968345" transform="translate(412,685)"/>
<path d="M0 0 C2 1 2 1 2 1 Z " fill="#9B8446" transform="translate(368,685)"/>
<path d="M0 0 C2 1 2 1 2 1 Z " fill="#948044" transform="translate(425,684)"/>
<path d="" fill="#8F7D41" transform="translate(0,0)"/>
<path d="M0 0 C2 1 2 1 2 1 Z " fill="#948043" transform="translate(432,683)"/>
<path d="" fill="#485D41" transform="translate(0,0)"/>
<path d="" fill="#A28745" transform="translate(0,0)"/>
<path d="" fill="#3F5C47" transform="translate(0,0)"/>
<path d="M0 0 C2 1 2 1 2 1 Z " fill="#7F7543" transform="translate(437,611)"/>
<path d="" fill="#4B5F40" transform="translate(0,0)"/>
<path d="" fill="#3D5D46" transform="translate(0,0)"/>
<path d="" fill="#3F5E47" transform="translate(0,0)"/>
<path d="" fill="#4E6141" transform="translate(0,0)"/>
<path d="M0 0 C2 1 2 1 2 1 Z " fill="#7B7440" transform="translate(636,465)"/>
<path d="" fill="#AC8D45" transform="translate(0,0)"/>
<path d="" fill="#84763E" transform="translate(0,0)"/>
<path d="M0 0 C2 1 2 1 2 1 Z " fill="#807540" transform="translate(626,457)"/>
<path d="" fill="#A48744" transform="translate(0,0)"/>
<path d="M0 0 C2 1 2 1 2 1 Z " fill="#9D8242" transform="translate(568,445)"/>
<path d="" fill="#7C7340" transform="translate(0,0)"/>
<path d="M0 0 C2 1 2 1 2 1 Z " fill="#726C3B" transform="translate(594,436)"/>
<path d="M0 0 C2 1 2 1 2 1 Z " fill="#7B7441" transform="translate(582,434)"/>
<path d="M0 0 C2 1 2 1 2 1 Z " fill="#4A6043" transform="translate(529,421)"/>
<path d="M0 0 C2 1 2 1 2 1 Z " fill="#6D6841" transform="translate(622,376)"/>
<path d="M0 0 C2 1 2 1 2 1 Z " fill="#7B703D" transform="translate(613,372)"/>
<path d="" fill="#7B6F3C" transform="translate(0,0)"/>
<path d="" fill="#86763E" transform="translate(0,0)"/>
<path d="" fill="#877840" transform="translate(0,0)"/>
<path d="M0 0 C2 1 2 1 2 1 Z " fill="#8A7840" transform="translate(594,363)"/>
<path d="M0 0 C2 1 2 1 2 1 Z " fill="#89783E" transform="translate(561,356)"/>
<path d="M0 0 C2 1 2 1 2 1 Z " fill="#6A6A3E" transform="translate(532,356)"/>
<path d="M0 0 C2 1 2 1 2 1 Z " fill="#7B703E" transform="translate(542,354)"/>
<path d="M0 0 C2 1 2 1 2 1 Z " fill="#AA8945" transform="translate(452,303)"/>
<path d="" fill="#3E5D46" transform="translate(0,0)"/>
<path d="" fill="#3D5C48" transform="translate(0,0)"/>
<path d="" fill="#3D5C46" transform="translate(0,0)"/>
<path d="" fill="#3C5C46" transform="translate(0,0)"/>
<path d="" fill="#3D5F46" transform="translate(0,0)"/>
<path d="" fill="#3E5E47" transform="translate(0,0)"/>
<path d="" fill="#3C5C48" transform="translate(0,0)"/>
<path d="" fill="#3E6146" transform="translate(0,0)"/>
<path d="" fill="#405F46" transform="translate(0,0)"/>
<path d="" fill="#46634C" transform="translate(0,0)"/>
<path d="" fill="#46624B" transform="translate(0,0)"/>
<path d="" fill="#465F49" transform="translate(0,0)"/>
<path d="" fill="#3A5942" transform="translate(0,0)"/>
<path d="" fill="#3E5D47" transform="translate(0,0)"/>
<path d="" fill="#3D5B45" transform="translate(0,0)"/>
<path d="" fill="#3E5B43" transform="translate(0,0)"/>
<path d="" fill="#3E5941" transform="translate(0,0)"/>
<path d="" fill="#3C5A41" transform="translate(0,0)"/>
<path d="" fill="#3B5B42" transform="translate(0,0)"/>
<path d="" fill="#3C5941" transform="translate(0,0)"/>
<path d="" fill="#405A42" transform="translate(0,0)"/>
<path d="" fill="#3F5C42" transform="translate(0,0)"/>
<path d="" fill="#425B41" transform="translate(0,0)"/>
<path d="" fill="#3E5840" transform="translate(0,0)"/>
<path d="" fill="#415B43" transform="translate(0,0)"/>
<path d="" fill="#3F5B46" transform="translate(0,0)"/>
<path d="" fill="#405A3E" transform="translate(0,0)"/>
<path d="" fill="#405B40" transform="translate(0,0)"/>
<path d="" fill="#445D48" transform="translate(0,0)"/>
<path d="" fill="#445B41" transform="translate(0,0)"/>
<path d="" fill="#405F48" transform="translate(0,0)"/>
<path d="" fill="#405C47" transform="translate(0,0)"/>
<path d="" fill="#445941" transform="translate(0,0)"/>
<path d="" fill="#435B40" transform="translate(0,0)"/>
<path d="" fill="#6B6F45" transform="translate(0,0)"/>
<path d="" fill="#676E4A" transform="translate(0,0)"/>
<path d="" fill="#485F44" transform="translate(0,0)"/>
<path d="" fill="#917F44" transform="translate(0,0)"/>
<path d="" fill="#988547" transform="translate(0,0)"/>
<path d="" fill="#9B8345" transform="translate(0,0)"/>
<path d="" fill="#9C8646" transform="translate(0,0)"/>
<path d="" fill="#A08545" transform="translate(0,0)"/>
<path d="" fill="#A18645" transform="translate(0,0)"/>
<path d="" fill="#A38745" transform="translate(0,0)"/>
<path d="" fill="#435941" transform="translate(0,0)"/>
<path d="" fill="#A68845" transform="translate(0,0)"/>
<path d="" fill="#485E42" transform="translate(0,0)"/>
<path d="" fill="#475D42" transform="translate(0,0)"/>
<path d="" fill="#A78946" transform="translate(0,0)"/>
<path d="" fill="#485D42" transform="translate(0,0)"/>
<path d="" fill="#3E5B47" transform="translate(0,0)"/>
<path d="" fill="#A98A45" transform="translate(0,0)"/>
<path d="" fill="#465F42" transform="translate(0,0)"/>
<path d="" fill="#485F41" transform="translate(0,0)"/>
<path d="" fill="#A88B45" transform="translate(0,0)"/>
<path d="" fill="#AE8F4D" transform="translate(0,0)"/>
<path d="" fill="#485F42" transform="translate(0,0)"/>
<path d="" fill="#496042" transform="translate(0,0)"/>
<path d="" fill="#3F5F49" transform="translate(0,0)"/>
<path d="" fill="#AB8947" transform="translate(0,0)"/>
<path d="" fill="#857844" transform="translate(0,0)"/>
<path d="" fill="#827643" transform="translate(0,0)"/>
<path d="" fill="#837643" transform="translate(0,0)"/>
<path d="" fill="#968244" transform="translate(0,0)"/>
<path d="" fill="#9C8849" transform="translate(0,0)"/>
<path d="" fill="#7A7845" transform="translate(0,0)"/>
<path d="" fill="#A68946" transform="translate(0,0)"/>
<path d="" fill="#405D4A" transform="translate(0,0)"/>
<path d="" fill="#676F43" transform="translate(0,0)"/>
<path d="" fill="#AB8942" transform="translate(0,0)"/>
<path d="" fill="#A78844" transform="translate(0,0)"/>
<path d="" fill="#A98B47" transform="translate(0,0)"/>
<path d="" fill="#AC8E4A" transform="translate(0,0)"/>
<path d="" fill="#AE8D46" transform="translate(0,0)"/>
<path d="" fill="#485B40" transform="translate(0,0)"/>
<path d="" fill="#AE8D45" transform="translate(0,0)"/>
<path d="" fill="#AF8B43" transform="translate(0,0)"/>
<path d="" fill="#B08E47" transform="translate(0,0)"/>
<path d="" fill="#516241" transform="translate(0,0)"/>
<path d="" fill="#AF8F47" transform="translate(0,0)"/>
<path d="" fill="#405F48" transform="translate(0,0)"/>
<path d="" fill="#3C5A45" transform="translate(0,0)"/>
<path d="" fill="#536342" transform="translate(0,0)"/>
<path d="" fill="#415F48" transform="translate(0,0)"/>
<path d="" fill="#B08F46" transform="translate(0,0)"/>
<path d="" fill="#3E5B46" transform="translate(0,0)"/>
<path d="" fill="#AF9046" transform="translate(0,0)"/>
<path d="" fill="#B09146" transform="translate(0,0)"/>
<path d="" fill="#B29149" transform="translate(0,0)"/>
<path d="" fill="#5B6540" transform="translate(0,0)"/>
<path d="" fill="#53613F" transform="translate(0,0)"/>
<path d="" fill="#5A6542" transform="translate(0,0)"/>
<path d="" fill="#3B5944" transform="translate(0,0)"/>
<path d="" fill="#B29048" transform="translate(0,0)"/>
<path d="" fill="#5C663E" transform="translate(0,0)"/>
<path d="" fill="#5E6740" transform="translate(0,0)"/>
<path d="" fill="#5C633C" transform="translate(0,0)"/>
<path d="" fill="#5C643C" transform="translate(0,0)"/>
<path d="" fill="#686B3F" transform="translate(0,0)"/>
<path d="" fill="#405E47" transform="translate(0,0)"/>
<path d="" fill="#66683D" transform="translate(0,0)"/>
<path d="" fill="#66663F" transform="translate(0,0)"/>
<path d="" fill="#3C5945" transform="translate(0,0)"/>
<path d="" fill="#456045" transform="translate(0,0)"/>
<path d="" fill="#716D3E" transform="translate(0,0)"/>
<path d="" fill="#68693E" transform="translate(0,0)"/>
<path d="" fill="#3E5D44" transform="translate(0,0)"/>
<path d="" fill="#7A703F" transform="translate(0,0)"/>
<path d="" fill="#7E723F" transform="translate(0,0)"/>
<path d="" fill="#415943" transform="translate(0,0)"/>
<path d="" fill="#887D47" transform="translate(0,0)"/>
<path d="" fill="#AC8E49" transform="translate(0,0)"/>
<path d="" fill="#AE8B44" transform="translate(0,0)"/>
<path d="" fill="#847740" transform="translate(0,0)"/>
<path d="" fill="#82743C" transform="translate(0,0)"/>
<path d="" fill="#7A713D" transform="translate(0,0)"/>
<path d="" fill="#85783F" transform="translate(0,0)"/>
<path d="" fill="#7B7341" transform="translate(0,0)"/>
<path d="" fill="#3F5A43" transform="translate(0,0)"/>
<path d="" fill="#847642" transform="translate(0,0)"/>
<path d="" fill="#A58943" transform="translate(0,0)"/>
<path d="" fill="#76703E" transform="translate(0,0)"/>
<path d="" fill="#7E7441" transform="translate(0,0)"/>
<path d="" fill="#3D5A43" transform="translate(0,0)"/>
<path d="" fill="#797040" transform="translate(0,0)"/>
<path d="" fill="#81753F" transform="translate(0,0)"/>
<path d="" fill="#405C42" transform="translate(0,0)"/>
<path d="" fill="#7A6F3D" transform="translate(0,0)"/>
<path d="" fill="#716C3A" transform="translate(0,0)"/>
<path d="" fill="#82753F" transform="translate(0,0)"/>
<path d="" fill="#797141" transform="translate(0,0)"/>
<path d="" fill="#7D7640" transform="translate(0,0)"/>
<path d="" fill="#67663E" transform="translate(0,0)"/>
<path d="" fill="#6A6D44" transform="translate(0,0)"/>
<path d="" fill="#6F6E45" transform="translate(0,0)"/>
<path d="" fill="#4A6042" transform="translate(0,0)"/>
<path d="" fill="#445E45" transform="translate(0,0)"/>
<path d="" fill="#3C5A43" transform="translate(0,0)"/>
<path d="" fill="#40573F" transform="translate(0,0)"/>
<path d="" fill="#65683F" transform="translate(0,0)"/>
<path d="" fill="#656942" transform="translate(0,0)"/>
<path d="" fill="#7F723F" transform="translate(0,0)"/>
<path d="" fill="#7B6D3C" transform="translate(0,0)"/>
<path d="" fill="#7B723C" transform="translate(0,0)"/>
<path d="" fill="#80743E" transform="translate(0,0)"/>
<path d="" fill="#7B703D" transform="translate(0,0)"/>
<path d="" fill="#857940" transform="translate(0,0)"/>
<path d="" fill="#88753E" transform="translate(0,0)"/>
<path d="" fill="#83753F" transform="translate(0,0)"/>
<path d="" fill="#967D3E" transform="translate(0,0)"/>
<path d="" fill="#88783F" transform="translate(0,0)"/>
<path d="" fill="#85753C" transform="translate(0,0)"/>
<path d="" fill="#897940" transform="translate(0,0)"/>
<path d="" fill="#8A7B3D" transform="translate(0,0)"/>
<path d="" fill="#82733D" transform="translate(0,0)"/>
<path d="" fill="#988042" transform="translate(0,0)"/>
<path d="" fill="#8C7A3F" transform="translate(0,0)"/>
<path d="" fill="#7E723D" transform="translate(0,0)"/>
<path d="" fill="#6C7347" transform="translate(0,0)"/>
<path d="" fill="#88773F" transform="translate(0,0)"/>
<path d="" fill="#89783E" transform="translate(0,0)"/>
<path d="" fill="#897A3F" transform="translate(0,0)"/>
<path d="" fill="#88783F" transform="translate(0,0)"/>
<path d="" fill="#5F6641" transform="translate(0,0)"/>
<path d="" fill="#5E6442" transform="translate(0,0)"/>
<path d="" fill="#5A6442" transform="translate(0,0)"/>
<path d="" fill="#586344" transform="translate(0,0)"/>
<path d="" fill="#596441" transform="translate(0,0)"/>
<path d="" fill="#566242" transform="translate(0,0)"/>
<path d="" fill="#576341" transform="translate(0,0)"/>
<path d="" fill="#546343" transform="translate(0,0)"/>
<path d="" fill="#566541" transform="translate(0,0)"/>
<path d="" fill="#546242" transform="translate(0,0)"/>
<path d="" fill="#546142" transform="translate(0,0)"/>
<path d="" fill="#526242" transform="translate(0,0)"/>
<path d="" fill="#546542" transform="translate(0,0)"/>
<path d="" fill="#536244" transform="translate(0,0)"/>
<path d="" fill="#536342" transform="translate(0,0)"/>
<path d="" fill="#696E47" transform="translate(0,0)"/>
<path d="" fill="#576341" transform="translate(0,0)"/>
<path d="" fill="#606741" transform="translate(0,0)"/>
<path d="" fill="#546441" transform="translate(0,0)"/>
<path d="" fill="#907E42" transform="translate(0,0)"/>
<path d="" fill="#948043" transform="translate(0,0)"/>
<path d="" fill="#9D8142" transform="translate(0,0)"/>
<path d="" fill="#A98945" transform="translate(0,0)"/>
<path d="" fill="#A98844" transform="translate(0,0)"/>
<path d="" fill="#A88844" transform="translate(0,0)"/>
<path d="" fill="#A98744" transform="translate(0,0)"/>
<path d="" fill="#A7853E" transform="translate(0,0)"/>
<path d="" fill="#A88840" transform="translate(0,0)"/>
<path d="" fill="#A98A40" transform="translate(0,0)"/>
<path d="" fill="#AF8D43" transform="translate(0,0)"/>
<path d="" fill="#AF8C46" transform="translate(0,0)"/>
<path d="" fill="#B18D46" transform="translate(0,0)"/>
<path d="" fill="#B08D45" transform="translate(0,0)"/>
<path d="" fill="#AF8B45" transform="translate(0,0)"/>
<path d="" fill="#B08E47" transform="translate(0,0)"/>
<path d="" fill="#B39046" transform="translate(0,0)"/>
<path d="" fill="#B29146" transform="translate(0,0)"/>
</svg>
